<?xml version="1.0" encoding="UTF-8"?>
<svg version="1.1" xmlns="http://www.w3.org/2000/svg" width="1188" height="400">
<path d="M0 0 C392.04 0 784.08 0 1188 0 C1188 132 1188 264 1188 400 C795.96 400 403.92 400 0 400 C0 268 0 136 0 0 Z " fill="#FDFEFE" transform="translate(0,0)"/>
<path d="M0 0 C2.64795834 -0.00542886 5.29587211 -0.01241293 7.94381714 -0.02124023 C14.35428488 -0.0389129 20.764564 -0.03523637 27.17503876 -0.02358967 C32.39002797 -0.01451167 37.60496477 -0.01335008 42.81995964 -0.01768494 C43.56558385 -0.01829787 44.31120807 -0.0189108 45.07942696 -0.01954231 C46.59470346 -0.02082136 48.10997994 -0.02211822 49.62525641 -0.02343267 C63.79288243 -0.03480529 77.96040447 -0.0217767 92.12801342 -0.00023121 C104.25482786 0.01764046 116.3814891 0.01452868 128.50830078 -0.00390625 C142.63094106 -0.02536551 156.75349052 -0.03371082 170.87614483 -0.0214572 C172.38516707 -0.02018315 173.89418932 -0.01892567 175.40321159 -0.01768494 C176.14545499 -0.01706783 176.88769839 -0.01645073 177.65243401 -0.01581493 C182.85487039 -0.01237743 188.05724861 -0.01815555 193.25967598 -0.02760315 C199.60865115 -0.03888078 205.95742879 -0.03566298 212.30638165 -0.01448017 C215.5387796 -0.00404697 218.77078576 -0.00190751 222.00319099 -0.01307678 C238.35645829 -0.06434974 253.06746051 0.45760907 267.85717773 8.20507812 C268.85297852 8.71663452 268.85297852 8.71663452 269.86889648 9.23852539 C275.92988437 12.48643074 280.78814213 16.55498322 285.54467773 21.51757812 C286.23819336 22.18015625 286.93170898 22.84273437 287.64624023 23.52539062 C292.06354148 28.01091274 295.07025456 32.89331072 297.91967773 38.45507812 C298.25370605 39.09904541 298.58773438 39.7430127 298.93188477 40.40649414 C303.26291874 49.31264248 303.84072998 58.42317775 303.80537415 68.19332886 C303.80919969 69.32863387 303.81302524 70.46393889 303.81696671 71.63364708 C303.82723901 75.41645712 303.82331551 79.19911374 303.81933594 82.98193359 C303.82259405 85.70282425 303.82880559 88.42370652 303.83482361 91.14459229 C303.84753843 97.75535428 303.84936834 104.36607559 303.84702335 110.97684775 C303.84523646 116.35313182 303.84699776 121.72940359 303.85124779 127.10568619 C303.85184298 127.87241704 303.85243817 128.63914789 303.85305139 129.42911301 C303.85426321 130.98699489 303.85547734 132.54487678 303.85669377 134.10275866 C303.86755686 148.69514587 303.86541262 163.28750994 303.85930892 177.87989844 C303.85414058 191.21162917 303.86539521 204.54328681 303.88440714 217.87500308 C303.90380728 231.58469497 303.91203775 245.29435231 303.90828389 259.004058 C303.90637518 266.69273098 303.90882714 274.38134177 303.92299843 282.07000351 C303.93494095 288.61533386 303.93628503 295.16056372 303.92420826 301.70589553 C303.91833963 305.04114779 303.91880655 308.37606678 303.92921066 311.71133041 C303.93970253 315.33700876 303.93155724 318.96219893 303.91889954 322.58786011 C303.92627382 323.62776844 303.93364811 324.66767677 303.94124585 325.73909748 C303.8671692 335.87539974 301.66006471 345.47269841 297.04467773 354.51757812 C296.70355957 355.18909912 296.36244141 355.86062012 296.01098633 356.55249023 C288.59286708 370.42150616 276.05454188 380.63302211 261.54467773 386.51757812 C260.93703394 386.76694783 260.32939014 387.01631754 259.7033329 387.2732439 C251.25404253 390.28188741 242.72058503 389.91744539 233.88598633 389.8581543 C232.11113499 389.8573069 230.33628261 389.85778536 228.56143188 389.85948181 C223.76869511 389.86033879 218.97618585 389.84276134 214.18350172 389.82175994 C209.16536598 389.80294342 204.14722441 389.80123879 199.12905884 389.79768372 C189.6378626 389.78837783 180.14677064 389.76378383 170.65562022 389.73363525 C157.82217534 389.69375907 144.98870174 389.67762459 132.15521049 389.66012859 C111.95162154 389.63196165 91.74825259 389.57218238 71.54467773 389.51757812 C71.54467773 362.78757812 71.54467773 336.05757813 71.54467773 308.51757812 C81.50862259 304.08915819 81.50862259 304.08915819 85.41967773 303.08007812 C90.08302204 301.74872211 94.33121465 299.89126632 98.71264648 297.82617188 C101.52256941 296.5277937 104.36037885 295.35923817 107.23217773 294.20507812 C130.45996185 284.57404569 152.42902688 271.73127268 172.29174805 256.37719727 C172.94498047 255.87696045 173.59821289 255.37672363 174.27124023 254.86132812 C174.85470215 254.40951172 175.43816406 253.95769531 176.03930664 253.4921875 C177.54467773 252.51757812 177.54467773 252.51757812 179.54467773 252.51757812 C179.54467773 251.85757813 179.54467773 251.19757813 179.54467773 250.51757812 C184.01526597 246.51757812 184.01526597 246.51757812 186.54467773 246.51757812 C186.54467773 245.85757813 186.54467773 245.19757813 186.54467773 244.51757812 C187.97827148 243.14257813 187.97827148 243.14257813 189.98217773 241.51757812 C204.75594243 228.83956639 215.71238979 212.21920905 223.54467773 194.51757812 C224.02549805 193.4425 224.50631836 192.36742187 225.00170898 191.25976562 C234.17946439 169.13333417 236.54176158 143.03511107 227.71508789 120.38916016 C216.01331176 92.88205822 193.31399282 74.97430143 166.52124023 63.375 C164.94545435 62.6914328 163.38312996 61.97685761 161.82592773 61.25195312 C126.20639294 45.44892008 81.35895789 48.96342597 45.6965332 62.64794922 C21.40499531 72.46488341 -2.13170278 84.83171525 -24.45532227 98.51757812 C-25.23439941 98.98953613 -26.01347656 99.46149414 -26.81616211 99.94775391 C-45.36429434 111.18409551 -63.60119994 122.9928745 -81.04125977 135.89257812 C-83.45532227 137.51757812 -83.45532227 137.51757812 -85.45532227 137.51757812 C-85.52527211 127.60674779 -85.57835955 117.69597755 -85.61075878 107.7849493 C-85.62631995 103.18133167 -85.64738044 98.57788469 -85.68164062 93.97436523 C-85.71457888 89.51987121 -85.73224678 85.06553985 -85.73995399 80.6109333 C-85.74543639 78.92353319 -85.75613916 77.23614054 -85.77251244 75.54881096 C-85.96487309 54.87622317 -82.58543342 36.99020076 -67.65063477 21.65039062 C-66.92618164 20.9465625 -66.20172852 20.24273438 -65.45532227 19.51757812 C-64.85461914 18.89625 -64.25391602 18.27492188 -63.63500977 17.63476562 C-45.93955887 0.55214419 -23.06743439 -0.07977628 0 0 Z " fill="#296099" transform="translate(114.455322265625,5.482421875)"/>
<path d="M0 0 C0.91952068 30.67188381 1.12411306 61.31543297 1 92 C0.04637573 92.26925293 0.04637573 92.26925293 -0.92651367 92.54394531 C-25.37756559 99.53804797 -48.80585325 108.48735462 -71 121 C-72.41925781 121.72509766 -72.41925781 121.72509766 -73.8671875 122.46484375 C-86.02190633 128.68647282 -97.40866715 136.9665322 -107.21484375 146.453125 C-109 148 -109 148 -111 148 C-111 148.66 -111 149.32 -111 150 C-111.66 150 -112.32 150 -113 150 C-114.77034357 153.06189027 -115.25519527 155.28621718 -115.2784729 158.80889893 C-115.28963638 159.77361115 -115.30079987 160.73832336 -115.31230164 161.73226929 C-115.31446182 162.78387238 -115.31662201 163.83547546 -115.31884766 164.91894531 C-115.32889328 166.03143646 -115.3389389 167.14392761 -115.34928894 168.29013062 C-115.3801942 171.96945679 -115.39717671 175.64870996 -115.4140625 179.328125 C-115.43276821 181.87832267 -115.45234117 184.42851411 -115.4727478 186.97869873 C-115.51888457 193.00633874 -115.55627015 199.03397167 -115.58942068 205.061692 C-115.6314065 212.59848459 -115.68676928 220.13517125 -115.7421875 227.671875 C-115.84097374 241.11452523 -115.91952955 254.55719995 -116 268 C-138.11 268 -160.22 268 -183 268 C-183.59675079 263.82274449 -184.13619517 259.92559048 -184.37304688 255.75830078 C-184.42980591 254.78684113 -184.48656494 253.81538147 -184.54504395 252.81448364 C-184.60236694 251.78515717 -184.65968994 250.75583069 -184.71875 249.6953125 C-184.78155151 248.61675995 -184.84435303 247.5382074 -184.90905762 246.42697144 C-185.10882234 242.99313498 -185.3047986 239.55909867 -185.5 236.125 C-185.69539808 232.69805541 -185.89171029 229.27117585 -186.09094238 225.8444519 C-186.2145663 223.71756939 -186.3360277 221.59055967 -186.45495605 219.46340942 C-186.24086603 209.58881719 -186.24086603 209.58881719 -189 201 C-195.77101461 200.04968216 -200.28661988 201.75015843 -206.33984375 204.53125 C-207.07843628 204.86286133 -207.81702881 205.19447266 -208.57800293 205.53613281 C-210.38857012 206.35026574 -212.19474222 207.17416083 -214 208 C-214.39542336 195.46533803 -214.69669748 182.93217877 -214.88080692 170.39253044 C-214.96921717 164.56818941 -215.08890756 158.74813997 -215.2824707 152.92626953 C-215.46841358 147.29779745 -215.56906725 141.67342608 -215.61291313 136.04211807 C-215.64411575 133.90389561 -215.70506012 131.7658763 -215.79741096 129.62942123 C-216.47150975 113.37502324 -216.47150975 113.37502324 -212.33551025 107.72702026 C-207.77530507 103.01121913 -202.52258872 99.48185965 -197 96 C-195.22953247 94.72380949 -193.46380113 93.44088906 -191.7109375 92.140625 C-190.27162748 91.16813982 -188.82648125 90.20422374 -187.375 89.25 C-186.19526611 88.45879761 -186.19526611 88.45879761 -184.99169922 87.65161133 C-183.41175863 86.59346985 -181.82932592 85.5390377 -180.24414062 84.48876953 C-178.12902102 83.08559293 -176.02383285 81.66888612 -173.921875 80.24609375 C-166.07592865 74.94779106 -158.11372163 69.88134985 -150 65 C-148.80989065 64.26953969 -147.61978668 63.53907062 -146.4296875 62.80859375 C-132.68904239 54.46693397 -118.34455715 47.23273927 -104 40 C-103.07203613 39.53062012 -102.14407227 39.06124023 -101.18798828 38.57763672 C-89.50329424 32.71159078 -77.5145818 27.61701167 -65.4375 22.625 C-64.71011627 22.323591 -63.98273254 22.02218201 -63.23330688 21.7116394 C-55.35112851 18.45494165 -47.48648934 15.36258839 -39.34619141 12.79467773 C-36.82502951 12.00380357 -36.82502951 12.00380357 -33.9375 10.4375 C-30.32383035 8.66910847 -26.68890922 7.76052923 -22.8046875 6.75 C-17.2889395 5.27503675 -11.94460906 3.37639204 -6.625 1.3125 C-3 0 -3 0 0 0 Z " fill="#2A6099" transform="translate(222,127)"/>
<path d="M0 0 C2.66796875 0.41015625 2.66796875 0.41015625 5.73046875 2.47265625 C7.87557324 5.72491145 8.67867131 8.66495881 9.66796875 12.41015625 C13.26767302 14.8099591 15.88325401 14.68956574 20.0390625 14.68359375 C21.51498156 14.70388108 22.99089297 14.72473184 24.46679688 14.74609375 C26.78855868 14.76869954 29.11001793 14.78516771 31.43188477 14.79101562 C33.67649711 14.80054385 35.91975422 14.83431854 38.1640625 14.87109375 C39.20173012 14.86352554 39.20173012 14.86352554 40.26036072 14.85580444 C43.6233947 14.92435334 45.39576518 15.20296833 48.10375977 17.26416016 C50.16675266 20.09445633 50.20273737 21.93329432 50.16796875 25.41015625 C50.1834375 26.95703125 50.1834375 26.95703125 50.19921875 28.53515625 C49.52340151 32.19252015 48.61662583 33.16908221 45.66796875 35.41015625 C43.04049832 35.78079314 40.81995501 35.92198475 38.19921875 35.87890625 C37.12323425 35.88948059 37.12323425 35.88948059 36.0255127 35.90026855 C32.96652577 35.92971869 29.90817893 35.91311771 26.84912109 35.90087891 C24.61126698 35.8984977 22.37444472 35.91941478 20.13671875 35.94140625 C19.44807739 35.93008667 18.75943604 35.91876709 18.04992676 35.90710449 C14.69648242 35.94236437 12.94033839 36.20547707 10.2277832 38.24389648 C8.07095707 41.23928203 8.23499244 43.32097762 8.35546875 46.97265625 C8.37996094 48.10832031 8.40445313 49.24398437 8.4296875 50.4140625 C8.55134653 53.46032374 8.55134653 53.46032374 9.66796875 56.41015625 C13.18548282 57.58266094 16.37892169 57.56396895 20.0390625 57.5859375 C21.5149883 57.60913052 22.99089982 57.63324764 24.46679688 57.65820312 C26.78859098 57.69334087 29.10985684 57.72268158 31.43188477 57.73608398 C33.67658923 57.75156799 35.91976311 57.7917666 38.1640625 57.8359375 C38.85584091 57.83402908 39.54761932 57.83212067 40.26036072 57.83015442 C43.24253491 57.90573283 45.31357258 58.18476911 47.84936523 59.79747009 C50.69460266 63.88506388 50.23343017 67.87530777 50.20141602 72.74316406 C50.21433937 74.3194735 50.21433937 74.3194735 50.2275238 75.92762756 C50.25025102 79.40642846 50.24343022 82.8844279 50.234375 86.36328125 C50.23960893 88.78220866 50.24588456 91.20113402 50.25315857 93.62005615 C50.26357633 98.69423003 50.25898334 103.76812374 50.24438477 108.84228516 C50.22722741 115.33680159 50.25064848 121.83043082 50.28587437 128.32484818 C50.30786853 133.32297604 50.30640133 138.32089249 50.29810905 143.31905365 C50.29729003 145.71278606 50.30414399 148.10653406 50.31888008 150.50022125 C50.33635461 153.85388603 50.32175536 157.20596833 50.29907227 160.55957031 C50.31661057 162.03584648 50.31661057 162.03584648 50.33450317 163.54194641 C50.22059755 171.84463732 47.12013743 177.38127496 41.29296875 183.22265625 C36.94732608 187.33365299 32.47766095 189.4770257 26.48046875 189.91015625 C22.66796875 189.41015625 22.66796875 189.41015625 20.16796875 187.59765625 C17.95027469 182.88505638 17.88726782 178.52808455 18.66796875 173.41015625 C20.69529971 170.25653032 21.83769277 169.63659515 25.41796875 168.66015625 C26.16046875 168.57765625 26.90296875 168.49515625 27.66796875 168.41015625 C28.92544735 164.52442454 28.83023089 160.62261009 28.8449707 156.58398438 C28.8515419 155.79978622 28.8581131 155.01558807 28.86488342 154.20762634 C28.88455656 151.61888528 28.89626242 149.03020192 28.90625 146.44140625 C28.91032553 145.5564296 28.91440105 144.67145294 28.91860008 143.75965881 C28.93943007 139.08017207 28.95374798 134.40071443 28.96313477 129.72119141 C28.9742242 124.88548754 29.00866173 120.05024065 29.04830647 115.21469879 C29.07441811 111.49667492 29.08282147 107.7787612 29.08641624 104.06065369 C29.09129226 102.2776326 29.10293505 100.49461676 29.12145424 98.71168518 C29.14574201 96.21952658 29.1449007 93.72856826 29.13793945 91.23632812 C29.15074951 90.49958359 29.16355957 89.76283905 29.17675781 89.00376892 C29.14190997 85.58481397 28.90509681 83.72772921 26.83415222 80.95422363 C23.85427338 78.83014976 21.73419226 78.87713032 18.10546875 78.91015625 C16.40197266 78.8946875 16.40197266 78.8946875 14.6640625 78.87890625 C11.62083244 79.11274953 11.62083244 79.11274953 10.00437164 81.16151524 C8.50634339 83.68210824 8.29208553 85.01538212 8.28942871 87.91966248 C8.28122604 88.81824982 8.27302338 89.71683716 8.26457214 90.64265442 C8.27072037 91.62094711 8.27686859 92.59923981 8.28320312 93.60717773 C8.27783035 94.64336243 8.27245758 95.67954712 8.266922 96.74713135 C8.25713886 98.99680656 8.25420146 101.24651953 8.25727844 103.49621391 C8.26174986 107.05601436 8.2477749 110.61531594 8.22888184 114.17506409 C8.19206829 121.73258663 8.17838394 129.29005723 8.16796875 136.84765625 C8.15589925 145.60123774 8.13440077 154.35457688 8.08796692 163.10804939 C8.07437365 166.61627274 8.07857199 170.12419157 8.08337402 173.63243103 C8.07403442 175.7828714 8.06386586 177.93330839 8.05273438 180.08374023 C8.0588826 181.0600087 8.06503082 182.03627716 8.07136536 183.04212952 C8.02191205 188.47664969 7.71185553 192.36626947 3.66796875 196.41015625 C1.12109375 196.68359375 1.12109375 196.68359375 -2.08203125 196.78515625 C-3.12875 196.83414063 -4.17546875 196.883125 -5.25390625 196.93359375 C-9.55380393 196.20239287 -10.72019492 194.90130895 -13.33203125 191.41015625 C-14.07831198 187.82843899 -14.02230745 184.30127444 -13.99145508 180.65307617 C-14.00193878 179.56969971 -14.01242249 178.48632324 -14.02322388 177.37011719 C-14.05199839 173.79332933 -14.04567906 170.21750799 -14.0390625 166.640625 C-14.05217597 164.15911138 -14.0674791 161.67760844 -14.08488464 159.19612122 C-14.12478787 152.66784044 -14.1349286 146.13983855 -14.13891602 139.6114502 C-14.14555781 132.94856824 -14.18564468 126.28582846 -14.22070312 119.62304688 C-14.28533342 106.55209802 -14.31948276 93.48125354 -14.33203125 80.41015625 C-17.6686899 79.2979367 -20.31982787 79.20761846 -23.83203125 79.16015625 C-24.97671875 79.134375 -26.12140625 79.10859375 -27.30078125 79.08203125 C-30.27292854 79.14100723 -30.27292854 79.14100723 -31.99782562 80.67057228 C-33.64073383 82.81265347 -33.70797727 83.8937264 -33.71057129 86.57162476 C-33.71877396 87.41835251 -33.72697662 88.26508026 -33.73542786 89.13746643 C-33.72927963 90.06324997 -33.72313141 90.98903351 -33.71679688 91.94287109 C-33.72216965 92.92038834 -33.72754242 93.89790558 -33.733078 94.90504456 C-33.74286941 97.02977901 -33.74579606 99.15455352 -33.74272156 101.27930832 C-33.73825399 104.64161083 -33.75221443 108.00338408 -33.77111816 111.3656311 C-33.80795464 118.50546409 -33.82161745 125.64524221 -33.83203125 132.78515625 C-33.84410015 141.05096246 -33.8656123 149.31651205 -33.91203308 157.58220291 C-33.92562469 160.89542908 -33.92142802 164.20833271 -33.91662598 167.52157593 C-33.92596627 169.55393893 -33.93613501 171.58629836 -33.94726562 173.61865234 C-33.9411174 174.54038742 -33.93496918 175.4621225 -33.92863464 176.41178894 C-33.97483956 181.21310079 -34.15393231 184.53809765 -37.33203125 188.41015625 C-41.25970719 190.37399422 -46.04976624 189.88525962 -50.33203125 189.41015625 C-52.98766927 187.51327195 -53.90445652 186.2653057 -55.33203125 183.41015625 C-55.43304064 181.82510451 -55.47145931 180.23587686 -55.47920227 178.64762878 C-55.48635757 177.64240677 -55.49351288 176.63718475 -55.50088501 175.60150146 C-55.50357391 174.49445862 -55.50626282 173.38741577 -55.5090332 172.24682617 C-55.51889 170.50279259 -55.51889 170.50279259 -55.52894592 168.723526 C-55.548713 164.86255841 -55.5603485 161.00162975 -55.5703125 157.140625 C-55.57438803 155.82479242 -55.57846355 154.50895985 -55.58266258 153.15325356 C-55.60171501 146.90887273 -55.61594582 140.66450374 -55.62427455 134.42009944 C-55.6340471 127.21219638 -55.66036643 120.00460041 -55.70077544 112.79680556 C-55.73093723 107.22560528 -55.74574347 101.65449302 -55.74905556 96.08321267 C-55.7514061 92.75571295 -55.76233712 89.42861638 -55.78551674 86.10118675 C-55.80977927 82.38776372 -55.80896631 78.6751474 -55.80200195 74.96166992 C-55.82121704 73.31021469 -55.82121704 73.31021469 -55.84082031 71.62539673 C-55.79004668 64.21329319 -55.79004668 64.21329319 -53.5164032 60.22642517 C-50.44769841 57.67484821 -47.68070448 57.7346235 -43.86328125 57.80859375 C-43.14595825 57.80058746 -42.42863525 57.79258118 -41.6895752 57.78433228 C-39.40314925 57.76129391 -37.11850451 57.77071233 -34.83203125 57.78515625 C-32.54589206 57.7890074 -30.26053842 57.78553981 -27.9744873 57.76455688 C-26.55436883 57.75249461 -25.1340296 57.75509363 -23.71398926 57.77426147 C-20.68511995 57.75716013 -18.58867116 57.54769341 -15.8984375 56.10595703 C-13.40320084 53.40459889 -13.75249011 50.39008127 -13.83203125 46.91015625 C-13.8165625 46.23339844 -13.80109375 45.55664062 -13.78515625 44.859375 C-13.80861712 41.88571006 -13.83510516 39.94882847 -15.8984375 37.7121582 C-19.19081826 35.95069486 -22.16385404 36.04371565 -25.80078125 36.109375 C-27.27344201 36.10173547 -28.74609855 36.09324602 -30.21875 36.08398438 C-32.52979192 36.08619755 -34.83999406 36.09775099 -37.15087891 36.12524414 C-39.38921125 36.14596503 -41.62500062 36.12994212 -43.86328125 36.109375 C-44.89624329 36.13713264 -44.89624329 36.13713264 -45.95007324 36.16545105 C-47.91210938 36.13549805 -47.91210938 36.13549805 -51.33203125 35.41015625 C-54.19234142 32.00751199 -55.89632014 29.33984222 -55.83203125 24.84765625 C-55.84234375 24.12449219 -55.85265625 23.40132812 -55.86328125 22.65625 C-55.08156931 19.3512179 -53.75852172 17.78489062 -51.33203125 15.41015625 C-48.55687788 14.92884029 -46.3777969 14.75683002 -43.609375 14.80859375 C-42.86748428 14.80058746 -42.12559357 14.79258118 -41.36122131 14.78433228 C-38.99676578 14.76128748 -36.63403275 14.77071948 -34.26953125 14.78515625 C-31.90178291 14.78900273 -29.5347923 14.78558671 -27.16712952 14.76455688 C-25.69585205 14.7524583 -24.22436169 14.75515319 -22.75315857 14.77426147 C-18.82253708 14.76815319 -18.82253708 14.76815319 -15.41040039 13.01025391 C-14.18132016 11.18652924 -13.49849713 9.50476329 -12.83203125 7.41015625 C-10.56710129 0.29180493 -7.07126894 -0.21484701 0 0 Z " fill="#020202" transform="translate(1001.33203125,48.58984375)"/>
<path d="M0 0 C0.75792847 -0.00619858 1.51585693 -0.01239716 2.29675293 -0.01878357 C3.89362305 -0.02586364 5.49056727 -0.02273933 7.08740234 -0.01000977 C9.52449808 0.0038678 11.95775885 -0.03024639 14.39453125 -0.06835938 C15.95052177 -0.06931059 17.50651707 -0.06745161 19.0625 -0.0625 C20.14863586 -0.08238731 20.14863586 -0.08238731 21.25671387 -0.10267639 C25.196373 -0.03051116 26.87337286 0.43757093 29.96435547 2.95996094 C32.02184079 5.55454083 32.90346536 7.19211795 33.65625 10.37890625 C34.00623047 11.84650391 34.00623047 11.84650391 34.36328125 13.34375 C35.19540536 17.35838388 35.97168209 21.38076166 36.70019531 25.41552734 C37.98055681 32.4703513 39.44271905 39.4851093 40.90625 46.50390625 C42.83998286 55.78833376 44.74644627 65.07688559 46.59375 74.37890625 C48.39275595 83.43199155 50.25215451 92.47081971 52.14770508 101.50415039 C53.96192194 110.17382759 55.70203652 118.85763225 57.41992188 127.546875 C57.61650391 128.53816406 57.81308594 129.52945313 58.015625 130.55078125 C58.18803711 131.42444336 58.36044922 132.29810547 58.53808594 133.19824219 C58.85287304 134.70984364 59.19730569 136.21577488 59.57983398 137.71166992 C60.18528127 140.19927565 60.27764357 142.57163111 60.34375 145.12890625 C60.39982422 146.55396484 60.39982422 146.55396484 60.45703125 148.0078125 C60.03125 150.56640625 60.03125 150.56640625 58.35546875 152.37890625 C55.57238606 153.80085102 53.64885912 153.99962382 50.53125 154.00390625 C49.5928125 154.02324219 48.654375 154.04257813 47.6875 154.0625 C44.08026256 153.38879536 43.14285938 152.59077582 41.03125 149.56640625 C39.89725955 146.2688714 39.18166614 142.91389294 38.46875 139.50390625 C38.04391521 137.60916254 37.61814246 135.71462888 37.19140625 133.8203125 C36.89194092 132.4593042 36.89194092 132.4593042 36.58642578 131.07080078 C35.90883228 128.01418066 35.18573927 124.97366031 34.40625 121.94140625 C34.20773437 121.14476562 34.00921875 120.348125 33.8046875 119.52734375 C32.89163064 117.2124218 31.99605275 116.08843655 30.03125 114.56640625 C26.24817546 113.24497189 22.33822334 113.38706855 18.37890625 113.36328125 C17.64175888 113.35758118 16.90461151 113.3518811 16.14512634 113.3460083 C14.58935979 113.33658359 13.03357351 113.33003439 11.4777832 113.32617188 C9.10527656 113.31645347 6.73363217 113.28540246 4.36132812 113.25390625 C2.84635929 113.2473766 1.33138428 113.24212598 -0.18359375 113.23828125 C-1.24162453 113.21976105 -1.24162453 113.21976105 -2.32102966 113.2008667 C-6.71433626 113.22062158 -9.46697117 113.88365824 -12.96875 116.56640625 C-14.07036955 118.3381607 -14.07036955 118.3381607 -14.53125 120.50390625 C-14.76070312 121.37402344 -14.99015625 122.24414062 -15.2265625 123.140625 C-15.82655295 125.91005461 -16.37636184 128.67635748 -16.8984375 131.4609375 C-17.06529053 132.33951416 -17.23214355 133.21809082 -17.40405273 134.12329102 C-17.73360886 135.89058982 -18.04873011 137.66065408 -18.34790039 139.43334961 C-19.31691756 144.74163286 -20.54318201 148.35651056 -23.96875 152.56640625 C-27.93534201 154.54970225 -32.65425753 154.10094514 -36.96875 153.56640625 C-39.71875 151.69140625 -39.71875 151.69140625 -40.96875 148.56640625 C-40.90759496 141.30849162 -39.19214409 134.07800017 -37.71875 127.00390625 C-37.26549479 124.78388075 -36.81237355 122.56382789 -36.359375 120.34375 C-36.12798828 119.2182373 -35.89660156 118.09272461 -35.65820312 116.93310547 C-34.57589218 111.64802475 -33.52313223 106.35711584 -32.46875 101.06640625 C-32.05224002 98.98304159 -31.63557298 96.89970831 -31.21875 94.81640625 C-31.0125 93.78515625 -30.80625 92.75390625 -30.59375 91.69140625 C-28.30208333 80.23307292 -26.01041667 68.77473958 -23.71875 57.31640625 C-23.5122583 56.28386719 -23.3057666 55.25132813 -23.09301758 54.1875 C-22.67891767 52.11716242 -22.26469368 50.04684966 -21.8503418 47.9765625 C-20.76835219 42.56959751 -19.6889219 37.16213813 -18.61328125 31.75390625 C-18.39027344 30.63435547 -18.16726563 29.51480469 -17.9375 28.36132812 C-17.5135174 26.23258215 -17.0902872 24.10368612 -16.66796875 21.97460938 C-16.28628414 20.0598249 -15.898097 18.14632149 -15.50244141 16.234375 C-15.15414899 14.49323156 -14.83716608 12.74544714 -14.55615234 10.9921875 C-14.34853271 9.80689453 -14.34853271 9.80689453 -14.13671875 8.59765625 C-14.02996826 7.91251953 -13.92321777 7.22738281 -13.81323242 6.52148438 C-11.1878309 0.44336487 -5.92135752 -0.04056006 0 0 Z " fill="#2B619A" transform="translate(611.96875,71.43359375)"/>
<path d="M0 0 C1.37671875 -0.01933594 1.37671875 -0.01933594 2.78125 -0.0390625 C6.60711202 0.89541529 8.02567107 2.59519838 10.5 5.625 C11.12641239 8.9068737 11.12641239 8.9068737 11.12818909 12.70895386 C11.13528347 13.41065803 11.14237786 14.1123622 11.14968723 14.83533013 C11.16725567 17.18098318 11.14917036 19.52497651 11.13110352 21.87060547 C11.13624292 23.55455275 11.14352436 25.23849466 11.15278625 26.92242432 C11.17130876 31.49290283 11.15835531 36.06279834 11.13869596 40.63325262 C11.12230972 45.41860476 11.13112257 50.20391995 11.13621521 54.98928833 C11.14073707 63.02762154 11.12486277 71.06572214 11.09692383 79.10400391 C11.06489329 88.39093976 11.06487892 97.67745556 11.0821386 106.96442115 C11.09801772 115.90308313 11.0912598 124.84159145 11.07420158 133.78024673 C11.0673376 137.58154528 11.06835692 141.38272041 11.07574654 145.18401718 C11.08342289 149.66408555 11.07123932 154.14367763 11.04389763 158.62366486 C11.03702601 160.26552288 11.0369027 161.9074255 11.04411316 163.54928207 C11.05283995 165.79574122 11.03679972 168.04074131 11.0146637 170.28707886 C11.01185678 171.54251936 11.00904985 172.79795986 11.00615788 174.09144402 C9.92456964 181.64215649 4.7675358 187.36932802 -0.5 192.625 C-6.0633757 196.63580574 -11.28384638 196.85198022 -18 196.9375 C-18.75925781 196.96650391 -19.51851562 196.99550781 -20.30078125 197.02539062 C-23.79094496 197.06512103 -26.05120409 196.92022356 -29 194.98046875 C-30.88997191 192.01262223 -31.03503671 190.12867079 -31 186.625 C-31.0103125 185.59375 -31.020625 184.5625 -31.03125 183.5 C-30.36807171 179.91103511 -29.44900537 178.7421069 -26.5 176.625 C-23.84375 176.12109375 -23.84375 176.12109375 -21 176.0625 C-16.79169061 175.96422904 -14.50928118 175.68138435 -11.5 172.625 C-10.90353161 169.55350713 -10.90353161 169.55350713 -11.0146637 165.95791626 C-11.01069027 165.27692757 -11.00671685 164.59593888 -11.00262302 163.89431417 C-10.9940154 161.607039 -11.01388176 159.32088626 -11.03344727 157.03369141 C-11.03289869 155.39606065 -11.03052499 153.75842963 -11.02645874 152.12080383 C-11.02127591 148.59139328 -11.02837298 145.06229286 -11.04471016 141.53291702 C-11.06977969 135.95279035 -11.06355782 130.37297157 -11.05223083 124.79281616 C-11.02900469 110.93128093 -11.04746067 97.06983364 -11.07373047 83.20831299 C-11.09366747 72.43943874 -11.10226883 61.67080951 -11.07679409 50.90193498 C-11.06496698 45.35429012 -11.07665859 39.80734221 -11.1060468 34.25976968 C-11.11929784 30.80798634 -11.11188678 27.35647359 -11.09876633 23.90469933 C-11.09690892 22.30390108 -11.10363341 20.70306641 -11.11956978 19.10234642 C-11.14014626 16.91617634 -11.1300026 14.73219807 -11.11231995 12.54605103 C-11.11474984 11.32304102 -11.11717974 10.10003101 -11.11968327 8.8399601 C-9.94709103 2.75646963 -6.04208038 -0.08486068 0 0 Z " fill="#0A0A0A" transform="translate(817.5,48.375)"/>
<path d="M0 0 C1.13402252 -0.00855011 1.13402252 -0.00855011 2.29095459 -0.01727295 C3.89138392 -0.02671465 5.49183262 -0.03325364 7.09228516 -0.03710938 C9.524115 -0.04678445 11.95508828 -0.07780179 14.38671875 -0.109375 C15.94530751 -0.1159087 17.50390228 -0.12115773 19.0625 -0.125 C19.78254211 -0.1373468 20.50258423 -0.1496936 21.2444458 -0.16241455 C26.38501813 -0.14007271 29.82304733 0.84795074 34.296875 3.203125 C35.57969863 5.76877225 35.50079453 7.71345569 35.546875 10.578125 C35.57265625 11.53460938 35.5984375 12.49109375 35.625 13.4765625 C35.23788649 16.69329144 34.63395916 17.9720425 32.296875 20.203125 C29.81640625 21.03125 29.81640625 21.03125 27.109375 21.453125 C26.20832031 21.60265625 25.30726563 21.7521875 24.37890625 21.90625 C23.34830078 22.05320312 23.34830078 22.05320312 22.296875 22.203125 C21.37404925 24.97160225 21.16762754 26.62900857 21.15643311 29.48521423 C21.15072296 30.35862961 21.14501282 31.23204498 21.13912964 32.13192749 C21.13801178 33.08733429 21.13689392 34.04274109 21.13574219 35.02709961 C21.13077728 36.03548386 21.12581238 37.0438681 21.12069702 38.08280945 C21.1060732 41.42370278 21.09927371 44.76454865 21.09375 48.10546875 C21.0879996 50.42330426 21.08224186 52.74113975 21.07647705 55.05897522 C21.06596704 59.92042259 21.06012408 64.78185341 21.05664062 69.64331055 C21.05114988 75.87906487 21.02710932 82.11460149 20.99866867 88.35028744 C20.98006735 93.13803248 20.97483807 97.92572476 20.97330475 102.71350288 C20.97027303 105.01285558 20.96222712 107.31220724 20.94911957 109.61152458 C20.93210849 112.82443826 20.93392715 116.03681571 20.94042969 119.24975586 C20.9312149 120.20313843 20.92200012 121.156521 20.9125061 122.13879395 C20.92985474 127.14879636 20.92985474 127.14879636 22.60430908 131.79396057 C25.17548933 133.93462506 28.0357444 133.74542246 31.296875 134.203125 C34.14246446 136.35380224 35.17388639 137.53753956 35.828125 141.078125 C35.8178125 142.109375 35.8075 143.140625 35.796875 144.203125 C35.8071875 145.234375 35.8175 146.265625 35.828125 147.328125 C35.14187631 151.04194142 34.34777402 151.97482833 31.296875 154.203125 C28.23870935 154.8117329 25.22364246 154.7874593 22.11328125 154.76953125 C21.22076157 154.77572983 20.32824188 154.78192841 19.40867615 154.78831482 C17.52335703 154.79541034 15.63797522 154.79224361 13.75268555 154.77954102 C10.87235775 154.76568744 7.99528716 154.79973282 5.11523438 154.83789062 C3.28124921 154.83884198 1.44725998 154.83698211 -0.38671875 154.83203125 C-1.24518906 154.84528946 -2.10365936 154.85854767 -2.98814392 154.87220764 C-7.39395371 154.80383088 -9.16616011 154.62364123 -12.74609375 151.82006836 C-15.4565658 148.19562351 -15.36512218 145.96003567 -15.1171875 141.58203125 C-14.50500534 138.06487149 -13.49618501 136.42324963 -10.703125 134.203125 C-8.38155903 133.79583272 -6.0462463 133.45873823 -3.703125 133.203125 C-1.61642804 131.65693539 -0.81088718 130.77418273 -0.32560158 128.20253754 C-0.3244705 127.43489326 -0.32333942 126.66724899 -0.32217407 125.87634277 C-0.30948486 124.55143074 -0.30948486 124.55143074 -0.29653931 123.19975281 C-0.302612 122.23342422 -0.30868469 121.26709564 -0.31494141 120.27148438 C-0.30968445 119.25174026 -0.30442749 118.23199615 -0.29901123 117.18135071 C-0.28578328 113.80303735 -0.29455942 110.42519334 -0.3046875 107.046875 C-0.30266757 104.70422271 -0.29975682 102.36157103 -0.29598999 100.0189209 C-0.29156284 95.10614035 -0.29801041 90.19352329 -0.31201172 85.28076172 C-0.32910364 78.97536964 -0.31926457 72.67036062 -0.30129433 66.3649826 C-0.29046715 61.52664287 -0.29389796 56.68839433 -0.3016777 51.85005188 C-0.30368266 49.52476456 -0.30121014 47.19946902 -0.29423904 44.87419128 C-0.28664227 41.6274921 -0.29820435 38.3814181 -0.31494141 35.13476562 C-0.30886871 34.16843704 -0.30279602 33.20210846 -0.29653931 32.20649719 C-0.30499878 31.3232225 -0.31345825 30.43994781 -0.32217407 29.52990723 C-0.32330515 28.76226295 -0.32443623 27.99461868 -0.32560158 27.20371246 C-0.80534885 24.66141621 -1.70205652 23.7937927 -3.703125 22.203125 C-5.98919648 21.32292635 -8.2842268 20.69799347 -10.64453125 20.046875 C-12.703125 19.203125 -12.703125 19.203125 -14.703125 16.203125 C-15.34579469 11.30837329 -15.75311699 6.72380306 -12.890625 2.578125 C-8.7028743 -0.05417544 -4.78337402 0.02791878 0 0 Z " fill="#2A619A" transform="translate(696.703125,70.796875)"/>
<path d="M0 0 C1.03125 -0.0103125 2.0625 -0.020625 3.125 -0.03125 C6.74032533 0.63679925 7.7405287 1.63621842 10 4.5 C10.47561169 7.27147388 10.47561169 7.27147388 10.4382782 10.50141907 C10.42964736 12.32169884 10.42964736 12.32169884 10.42084217 14.17875195 C10.3924208 15.49559632 10.36399942 16.8124407 10.3347168 18.16918945 C10.31754501 19.56278566 10.30152629 20.9563965 10.28659344 22.3500185 C10.0932509 37.10272908 9.46225795 51.84423685 8.75115418 66.57962966 C8.64262177 68.83260687 8.53580336 71.08565982 8.42941856 73.3387394 C8.09414397 80.4275261 7.75292832 87.51598753 7.40262872 94.60404795 C7.00141373 102.72364473 6.62133531 110.84389043 6.25835878 118.96528453 C5.97364843 125.30732843 5.67065999 131.64833366 5.35367316 137.98884565 C5.16589523 141.75294008 4.98581591 145.51701768 4.82502174 149.28236961 C4.64651437 153.44920209 4.43017308 157.61322676 4.21020508 161.77807617 C4.16272629 163.01474533 4.1152475 164.25141449 4.06632996 165.52555847 C3.58282907 173.83428164 3.58282907 173.83428164 0.58209229 177.26177979 C-3.9136213 179.41766069 -8.15871343 179.11680904 -13.0625 179.0625 C-14.05572266 179.08634766 -15.04894531 179.11019531 -16.07226562 179.13476562 C-23.24681307 179.12027159 -23.24681307 179.12027159 -26.65625 176.3125 C-28.11790299 173.25322631 -28.50791235 171.3125986 -28.4375 167.9375 C-28.43621094 167.00808594 -28.43492187 166.07867187 -28.43359375 165.12109375 C-27.93098795 162.08281905 -27.12506611 160.70469388 -25 158.5 C-23.01643517 157.78591666 -21.01684563 157.11382258 -19 156.5 C-17.73900113 153.97800226 -17.76384488 152.05771468 -17.62072754 149.23530579 C-17.53248466 147.5598317 -17.53248466 147.5598317 -17.44245911 145.85050964 C-17.38217026 144.61891617 -17.32188141 143.38732269 -17.25976562 142.1184082 C-17.15954353 140.17901367 -17.15954353 140.17901367 -17.05729675 138.20043945 C-16.87358656 134.64407231 -16.69536939 131.08744806 -16.51803398 127.53075814 C-16.33098502 123.79932142 -16.13869376 120.06815513 -15.94689941 116.33695984 C-15.58340027 109.2506273 -15.22426416 102.16408102 -14.86684465 95.07743949 C-14.34484867 84.73060239 -13.81738444 74.38404383 -13.28868866 64.03754711 C-13.24967705 63.27409129 -13.21066545 62.51063547 -13.17047167 61.72404462 C-13.09254613 60.19917419 -13.01460532 58.67430455 -12.93664885 57.1494357 C-12.71042981 52.72135098 -12.48579916 48.29318947 -12.26259613 43.86495173 C-12.15637846 41.76018672 -12.0496394 39.65544884 -11.94270325 37.55072021 C-11.81339098 35.00431417 -11.68491873 32.45786524 -11.55754089 29.91136169 C-11.44036725 27.61356287 -11.31658044 25.31608999 -11.18559265 23.01903725 C-11.05209997 20.48787182 -10.94913969 17.96542638 -10.87214661 15.43272972 C-10.81633956 14.07881199 -10.76021014 12.7249075 -10.70373535 11.37101746 C-10.66400856 10.15213931 -10.62428177 8.93326117 -10.58335114 7.67744732 C-9.43651261 1.43074822 -5.9780331 -0.05978033 0 0 Z " fill="#050505" transform="translate(774,62.5)"/>
<path d="M0 0 C1.03125 -0.0103125 2.0625 -0.020625 3.125 -0.03125 C6.81423917 0.65045724 7.74954755 1.5067697 10 4.5 C10.50807842 7.41813111 10.77430527 10.00602346 10.88134766 12.94140625 C10.92752668 13.79572644 10.97370571 14.65004663 11.0212841 15.53025532 C11.17033525 18.3737433 11.29228232 21.21772367 11.4140625 24.0625 C11.51344033 26.06975528 11.61442326 28.07693166 11.71691895 30.08403015 C11.98608249 35.44859955 12.23174057 40.81401315 12.47306061 46.17989731 C12.7253138 51.69200647 13.00074606 57.20295833 13.27294922 62.71411133 C14.17817822 81.22560767 15.01389318 99.73912403 15.65625 118.26171875 C15.6999472 119.50519073 15.74364441 120.74866272 15.78866577 122.02981567 C15.97726079 127.49935195 16.14685517 132.96827717 16.27978516 138.43945312 C16.33487846 140.29687745 16.39004817 142.15429951 16.4453125 144.01171875 C16.46386292 145.22198982 16.46386292 145.22198982 16.48278809 146.45671082 C16.62810154 150.92457874 17.14308782 153.9892734 20 157.5 C21.99172182 158.19100553 23.99161804 158.85902703 26 159.5 C28.67058557 163.58653363 28.56363932 167.78057228 28 172.5 C25.91891892 177.04054054 25.91891892 177.04054054 23 178.5 C19.38144197 178.79338566 15.75406781 178.77791549 12.125 178.8125 C11.11824219 178.84150391 10.11148438 178.87050781 9.07421875 178.90039062 C7.61822266 178.91295898 7.61822266 178.91295898 6.1328125 178.92578125 C4.80080811 178.94765503 4.80080811 178.94765503 3.44189453 178.9699707 C0.14948123 178.33630787 -0.89078774 177.07138767 -3 174.5 C-3.60151291 171.97881889 -3.60151291 171.97881889 -3.74676514 169.08468628 C-3.81116287 167.98399811 -3.87556061 166.88330994 -3.94190979 165.74926758 C-3.99298386 164.54536377 -4.04405792 163.34145996 -4.09667969 162.10107422 C-4.19996834 160.19239059 -4.19996834 160.19239059 -4.30534363 158.24514771 C-4.49391711 154.74806397 -4.65878586 151.25022034 -4.8190794 147.75174093 C-4.99195981 144.05676288 -5.18508997 140.3628376 -5.37554932 136.66873169 C-5.69404127 130.43322143 -5.99797521 124.19713607 -6.29248047 117.96044922 C-6.62862919 110.84380244 -6.98317926 103.72828209 -7.34928012 96.6131171 C-7.74326437 88.95313725 -8.12379076 81.29252868 -8.50034428 73.63167429 C-8.60717609 71.47409663 -8.71626019 69.31664352 -8.82588959 67.15920639 C-9.58565934 52.10621477 -10.16522658 37.05018739 -10.31155825 21.97743058 C-10.32831621 20.466892 -10.35158544 18.95641009 -10.38171339 17.44607902 C-10.42095997 15.35382057 -10.43388199 13.2630246 -10.43951416 11.17044067 C-10.45161045 9.97656298 -10.46370674 8.78268528 -10.47616959 7.55262947 C-9.50734238 1.34166902 -5.83332252 -0.05833323 0 0 Z " fill="#040404" transform="translate(861,62.5)"/>
<path d="M0 0 C1.39412109 0.00193359 1.39412109 0.00193359 2.81640625 0.00390625 C6.06242488 0.54087804 7.19752845 1.00002916 9.4375 3.4375 C9.83914527 6.54270971 9.98406644 9.29559565 9.95507812 12.40356445 C9.9620874 13.32095398 9.96909668 14.23834351 9.97631836 15.18353271 C9.99395446 18.22292158 9.9822527 21.26138253 9.96875 24.30078125 C9.97144399 26.41204507 9.97532564 28.52330769 9.98034668 30.63456726 C9.98624992 35.06403389 9.97765463 39.49317822 9.95898438 43.92260742 C9.9362364 49.59558803 9.94928664 55.26780999 9.97327423 60.94076252 C9.9877455 65.30315336 9.98311934 69.66536515 9.97276306 74.02776146 C9.97009729 76.11890948 9.97336026 78.21007383 9.98268127 80.30120277 C9.99286381 83.22898845 9.97731961 86.1555567 9.95507812 89.08325195 C9.96317505 89.94528732 9.97127197 90.80732269 9.97961426 91.69548035 C9.86967754 99.52464352 6.40492596 103.75752216 0.9375 109.1875 C0.1846875 109.94546875 -0.568125 110.7034375 -1.34375 111.484375 C-4.19077768 113.99056134 -6.37573803 115.26382752 -10.125 115.8125 C-12.5625 115.4375 -12.5625 115.4375 -14.19921875 113.82421875 C-15.98998136 110.68910139 -15.89417703 108.46470537 -15.8125 104.875 C-15.79703125 103.73933594 -15.7815625 102.60367188 -15.765625 101.43359375 C-15.5625 98.4375 -15.5625 98.4375 -14.5625 95.4375 C-13.0775 94.4475 -13.0775 94.4475 -11.5625 93.4375 C-11.27294364 90.58828771 -11.1771242 87.95482374 -11.20947266 85.10400391 C-11.20731247 84.24206924 -11.20515228 83.38013458 -11.20292664 82.49208069 C-11.19983385 80.61667464 -11.20346261 78.74124845 -11.21294022 76.8658638 C-11.22663319 73.89874477 -11.22026813 70.93229801 -11.20809937 67.96517944 C-11.17707159 59.52817455 -11.18202233 51.09132344 -11.20214844 42.65429688 C-11.21305414 37.49711679 -11.19989907 32.3404406 -11.17225266 27.18333054 C-11.16680358 25.21613251 -11.17089764 23.24888434 -11.18465042 21.28172684 C-11.20365767 18.53051953 -11.19232454 15.78096322 -11.17431641 13.02978516 C-11.18765518 12.21509262 -11.20099396 11.40040009 -11.21473694 10.5610199 C-11.15739214 6.62632301 -10.94442835 4.84200918 -8.19638062 1.93148804 C-5.19953253 0.23161783 -3.42406099 -0.07143382 0 0 Z " fill="#050505" transform="translate(924.5625,129.5625)"/>
<path d="M0 0 C1.44913697 -0.02149144 2.89814726 -0.05548963 4.34667969 -0.10253906 C17.9165835 -0.53922516 17.9165835 -0.53922516 22.49414062 3.30737305 C27.38550255 8.54356723 26.28643486 14.76707714 26.3046875 21.52587891 C26.31437002 23.69887913 26.34538138 25.87092393 26.37695312 28.04370117 C26.38348581 29.43106536 26.38873524 30.8184363 26.39257812 32.20581055 C26.40659668 34.09553589 26.40659668 34.09553589 26.42089844 36.0234375 C25.90993801 40.87091208 23.79393368 44.29712883 20.06445312 47.4050293 C17.26999504 48.33651532 15.33660682 48.5784117 12.43164062 48.6862793 C11.09939453 48.74235352 11.09939453 48.74235352 9.74023438 48.79956055 C7.86524541 48.87016683 5.99024528 48.94047689 4.11523438 49.01049805 C2.78685547 49.06657227 2.78685547 49.06657227 1.43164062 49.1237793 C0.61808105 49.15407227 -0.19547852 49.18436523 -1.03369141 49.21557617 C-2.94484318 49.20314798 -2.94484318 49.20314798 -3.93554688 50.4050293 C-4.06829892 51.94185364 -4.13882862 53.48416996 -4.18164062 55.02612305 C-4.21451172 55.96133789 -4.24738281 56.89655273 -4.28125 57.86010742 C-4.34232421 59.84436961 -4.39963143 61.8287514 -4.453125 63.81323242 C-4.50436523 65.21798828 -4.50436523 65.21798828 -4.55664062 66.65112305 C-4.58169678 67.51406982 -4.60675293 68.3770166 -4.63256836 69.26611328 C-4.93554688 71.4050293 -4.93554688 71.4050293 -6.93554688 73.4050293 C-9.99804688 73.5925293 -9.99804688 73.5925293 -12.93554688 73.4050293 C-14.81615184 71.52442434 -14.06335686 68.29144786 -14.06494141 65.78979492 C-14.06669373 65.09875168 -14.06844604 64.40770844 -14.07025146 63.69572449 C-14.07466942 61.40088422 -14.07173221 59.10612041 -14.06835938 56.8112793 C-14.06903243 55.22326645 -14.07000247 53.6352537 -14.07125854 52.04724121 C-14.07273544 48.7148338 -14.07058123 45.38245314 -14.06591797 42.05004883 C-14.06022068 37.76904419 -14.06349973 33.48810225 -14.06949043 29.20709991 C-14.07309627 25.92669193 -14.07195736 22.64629892 -14.06936264 19.3658905 C-14.06869343 17.7869618 -14.06952157 16.20803175 -14.07184219 14.62910461 C-14.0743691 12.42612077 -14.07052762 10.22323981 -14.06494141 8.02026367 C-14.06414581 6.76419312 -14.06335022 5.50812256 -14.06253052 4.21398926 C-13.76999167 -2.25715852 -5.10001366 0.05680708 0 0 Z " fill="#030303" transform="translate(521.935546875,297.594970703125)"/>
<path d="M0 0 C2.9375 0 2.9375 0 6 1 C8.41089354 5.00642405 9.54726096 8.73843558 10.375 13.3125 C10.74044922 15.25576172 10.74044922 15.25576172 11.11328125 17.23828125 C11.31751709 18.34357178 11.31751709 18.34357178 11.52587891 19.47119141 C12.49783841 24.6553091 13.53440027 29.82678565 14.5625 35 C14.77245605 36.07419189 14.98241211 37.14838379 15.19873047 38.25512695 C16.0361106 42.48472405 16.89026421 46.62487481 18.1015625 50.765625 C19.12566794 54.4524046 19.52533175 57.9364056 19.8125 61.75 C19.92207031 63.04421875 20.03164063 64.3384375 20.14453125 65.671875 C20 69 20 69 18.88330078 70.68310547 C16.15395912 72.5915925 14.02993228 72.38855028 10.72265625 72.3984375 C9.48708984 72.40230469 8.25152344 72.40617187 6.97851562 72.41015625 C5.68623047 72.39855469 4.39394531 72.38695312 3.0625 72.375 C1.12987305 72.39240234 1.12987305 72.39240234 -0.84179688 72.41015625 C-2.69708008 72.40435547 -2.69708008 72.40435547 -4.58984375 72.3984375 C-5.72284912 72.39505371 -6.85585449 72.39166992 -8.02319336 72.38818359 C-11.3034346 71.96043131 -12.71027148 71.36223831 -15 69 C-16.03945772 61.27831409 -13.61615082 53.52870258 -12 46 C-11.66355185 44.27143669 -11.32976165 42.54235136 -11 40.8125 C-10.29112098 37.23266093 -9.42187779 33.71829195 -8.5 30.1875 C-7.39984022 25.90787844 -6.61199647 21.68827475 -6 17.3125 C-4.09339888 4.09339888 -4.09339888 4.09339888 0 0 Z " fill="#FBFCFD" transform="translate(619,92)"/>
<path d="M0 0 C1.670625 0.00290039 1.670625 0.00290039 3.375 0.00585938 C5.11910156 0.02422852 5.11910156 0.02422852 6.8984375 0.04296875 C8.06890625 0.04361328 9.239375 0.04425781 10.4453125 0.04492188 C19.13324526 0.09027651 19.13324526 0.09027651 20.2734375 1.23046875 C20.3822063 2.7382473 20.42247256 4.25104705 20.43457031 5.76269531 C20.44417786 6.72749817 20.4537854 7.69230103 20.46368408 8.68634033 C20.46793396 9.73730896 20.47218384 10.78827759 20.4765625 11.87109375 C20.48226257 12.94542664 20.48796265 14.01975952 20.49383545 15.12664795 C20.50330375 17.40652476 20.50982666 19.68641537 20.51367188 21.96630859 C20.52335767 25.45174188 20.55435618 28.93658078 20.5859375 32.421875 C20.59246918 34.63411107 20.597719 36.84635137 20.6015625 39.05859375 C20.6139093 40.10146545 20.6262561 41.14433716 20.63897705 42.21881104 C20.61953628 48.55037111 19.96674663 52.08827477 15.7734375 56.98046875 C12.89745752 59.37711873 10.02936004 59.35854835 6.45703125 59.36328125 C5.52826172 59.36457031 4.59949219 59.36585938 3.64257812 59.3671875 C2.67513672 59.36332031 1.70769531 59.35945313 0.7109375 59.35546875 C-0.74602539 59.36126953 -0.74602539 59.36126953 -2.23242188 59.3671875 C-3.15990234 59.36589844 -4.08738281 59.36460937 -5.04296875 59.36328125 C-5.89318604 59.36215332 -6.74340332 59.36102539 -7.61938477 59.35986328 C-9.7265625 59.23046875 -9.7265625 59.23046875 -11.7265625 58.23046875 C-11.76897973 55.897521 -11.76749187 53.56344308 -11.7265625 51.23046875 C-10.14651897 49.65042522 -8.4797107 50.02953113 -6.2890625 49.94921875 C-4.94714844 49.89314453 -4.94714844 49.89314453 -3.578125 49.8359375 C-1.67708333 49.765625 0.22395833 49.6953125 2.125 49.625 C3.46691406 49.56892578 3.46691406 49.56892578 4.8359375 49.51171875 C5.66222656 49.48142578 6.48851562 49.45113281 7.33984375 49.41992188 C9.27904906 49.43645216 9.27904906 49.43645216 10.2734375 48.23046875 C10.31436687 45.89749442 10.31585473 43.5634165 10.2734375 41.23046875 C7.39282529 39.79016265 4.7329483 40.07526443 1.5234375 39.98046875 C-6.32034826 39.48972933 -6.32034826 39.48972933 -9.5390625 36.79296875 C-13.9201859 31.66079563 -12.98446788 26.42928734 -13.0390625 19.91796875 C-13.06806641 18.77650391 -13.09707031 17.63503906 -13.12695312 16.45898438 C-13.19096889 8.03352542 -13.19096889 8.03352542 -10.89453125 4.0625 C-7.03469815 0.80076717 -4.99302203 -0.02000975 0 0 Z " fill="#020202" transform="translate(1116.7265625,320.76953125)"/>
<path d="M0 0 C1.22396484 -0.02126953 1.22396484 -0.02126953 2.47265625 -0.04296875 C8.11264851 0.07471969 11.13216611 1.52107877 15.20507812 5.39794922 C18.05377551 8.64731181 17.69449276 11.97197693 17.73828125 16.078125 C17.746353 16.79353455 17.75442474 17.50894409 17.76274109 18.24603271 C17.77657958 19.76246724 17.7873028 21.27893288 17.79516602 22.79541016 C17.81233257 25.10249894 17.85621124 27.40813682 17.90039062 29.71484375 C17.91052212 31.19009365 17.9190368 32.66535572 17.92578125 34.140625 C17.94328934 34.8252179 17.96079742 35.50981079 17.97883606 36.21514893 C17.95245244 42.11109411 15.69547379 45.48729578 11.8046875 49.71875 C8.16823717 51.54313864 4.63731674 51.38796387 0.625 51.375 C-0.16519531 51.40335937 -0.95539063 51.43171875 -1.76953125 51.4609375 C-5.88298299 51.47462619 -8.66099254 51.1940859 -11.9453125 48.59375 C-17.70147543 42.46792523 -16.97257251 35.91595276 -17.03540039 27.91357422 C-17.06226501 25.64484514 -17.13717408 23.3808315 -17.21289062 21.11328125 C-17.43961457 8.95695064 -17.43961457 8.95695064 -13.55859375 3.8828125 C-9.37484329 0.07294264 -5.47838292 -0.26829363 0 0 Z " fill="#0C0C0C" transform="translate(1076.5,320.125)"/>
<path d="M0 0 C1.22396484 -0.02126953 1.22396484 -0.02126953 2.47265625 -0.04296875 C8.11264851 0.07471969 11.13216611 1.52107877 15.20507812 5.39794922 C18.05377551 8.64731181 17.69449276 11.97197693 17.73828125 16.078125 C17.746353 16.79353455 17.75442474 17.50894409 17.76274109 18.24603271 C17.77657958 19.76246724 17.7873028 21.27893288 17.79516602 22.79541016 C17.81233257 25.10249894 17.85621124 27.40813682 17.90039062 29.71484375 C17.91052212 31.19009365 17.9190368 32.66535572 17.92578125 34.140625 C17.94328934 34.8252179 17.96079742 35.50981079 17.97883606 36.21514893 C17.95245244 42.11109411 15.69547379 45.48729578 11.8046875 49.71875 C8.16823717 51.54313864 4.63731674 51.38796387 0.625 51.375 C-0.16519531 51.40335937 -0.95539062 51.43171875 -1.76953125 51.4609375 C-5.88298299 51.47462619 -8.66099254 51.1940859 -11.9453125 48.59375 C-17.70147543 42.46792523 -16.97257251 35.91595276 -17.03540039 27.91357422 C-17.06226501 25.64484514 -17.13717408 23.3808315 -17.21289062 21.11328125 C-17.43961457 8.95695064 -17.43961457 8.95695064 -13.55859375 3.8828125 C-9.37484329 0.07294264 -5.47838292 -0.26829363 0 0 Z " fill="#0C0C0C" transform="translate(694.5,320.125)"/>
<path d="M0 0 C0.83853516 -0.05414063 1.67707031 -0.10828125 2.54101562 -0.1640625 C7.00054292 -0.26153851 10.28538365 0.20778269 13.88671875 2.9609375 C18.52652072 8.31983069 17.70346918 15.59643343 17.50537109 22.27978516 C17.43745765 24.62646343 17.42336773 26.96883184 17.41796875 29.31640625 C17.39897148 30.81775132 17.37694012 32.31906172 17.3515625 33.8203125 C17.34508698 34.51625519 17.33861145 35.21219788 17.3319397 35.92922974 C17.15271776 41.19945222 15.69258787 44.30656415 12.3125 48.25 C8.70660564 51.25491196 4.02202248 50.86278392 -0.4375 51 C-1.17613281 51.05414063 -1.91476562 51.10828125 -2.67578125 51.1640625 C-6.8379725 51.26683265 -9.82401961 50.62796917 -13.1875 48.09765625 C-18.03548222 42.58960046 -17.14944006 34.83580791 -16.99023438 27.9206543 C-16.93753804 25.43929116 -16.94909854 22.9641558 -16.96875 20.48242188 C-16.95693665 18.89319626 -16.9414363 17.30399288 -16.921875 15.71484375 C-16.92572205 14.98031479 -16.92956909 14.24578583 -16.93353271 13.48899841 C-16.75095449 7.75512361 -15.11633097 5.38308635 -11.1875 1.5 C-7.70456762 -0.24146619 -3.83921903 0.10384064 0 0 Z " fill="#040404" transform="translate(1014.1875,320.5)"/>
<path d="M0 0 C1.63485352 -0.05607422 1.63485352 -0.05607422 3.30273438 -0.11328125 C12.34813992 -0.21237882 12.34813992 -0.21237882 16.01953125 2.7734375 C18.83748639 5.97064044 19.43837975 7.33116257 19.42602539 11.45751953 C19.42594986 12.29824005 19.42587433 13.13896057 19.42579651 14.00515747 C19.41805458 15.36772171 19.41805458 15.36772171 19.41015625 16.7578125 C19.4087413 17.68721649 19.40732635 18.61662048 19.40586853 19.57418823 C19.40026053 22.54949124 19.38770668 25.52471964 19.375 28.5 C19.36998603 30.51432183 19.36542295 32.52864484 19.36132812 34.54296875 C19.3502885 39.48700802 19.33301849 44.43099135 19.3125 49.375 C15.35412701 51.3541865 10.47809297 50.73490953 6.125 50.8125 C5.09568359 50.85826172 4.06636719 50.90402344 3.00585938 50.95117188 C-2.23317123 51.02836451 -5.74939908 50.92873759 -9.86328125 47.47265625 C-13.97383089 43.37581468 -13.95853591 39.74851209 -14.0625 34.125 C-14.09988281 33.37347656 -14.13726563 32.62195313 -14.17578125 31.84765625 C-14.23983974 27.76926556 -13.96669566 25.18231418 -11.3515625 21.953125 C-6.94630956 17.689977 -3.90390653 17.01460085 2 16.75 C2.70189453 16.71132813 3.40378906 16.67265625 4.12695312 16.6328125 C5.85504655 16.5387666 7.58373675 16.4558032 9.3125 16.375 C9.6425 14.395 9.9725 12.415 10.3125 10.375 C9.6512915 10.34994385 8.99008301 10.3248877 8.30883789 10.29907227 C5.33067695 10.18346898 2.3528608 10.06058246 -0.625 9.9375 C-1.66591797 9.89818359 -2.70683594 9.85886719 -3.77929688 9.81835938 C-4.76865234 9.77646484 -5.75800781 9.73457031 -6.77734375 9.69140625 C-8.15200806 9.63641968 -8.15200806 9.63641968 -9.55444336 9.58032227 C-11.6875 9.375 -11.6875 9.375 -12.6875 8.375 C-12.8125 4.875 -12.8125 4.875 -12.6875 1.375 C-10.14876288 -1.16373712 -3.40526926 0.04353046 0 0 Z " fill="#060606" transform="translate(570.6875,320.625)"/>
<path d="M0 0 C3.16949145 1.17975515 4.25579495 2.03278709 6.1015625 4.83203125 C8.21830759 12.29585851 8.27562879 21.34991138 7 29 C4.56153479 31.43846521 3.81673975 31.27661603 0.46484375 31.37890625 C-0.87223633 31.43014648 -0.87223633 31.43014648 -2.23632812 31.48242188 C-3.16896484 31.50884766 -4.10160156 31.53527344 -5.0625 31.5625 C-6.90768982 31.62218611 -8.75275897 31.68577463 -10.59765625 31.75390625 C-11.41758057 31.77783447 -12.23750488 31.8017627 -13.08227539 31.82641602 C-15.00781262 31.7943179 -15.00781262 31.7943179 -16 33 C-16.16666667 36 -16.16666667 36 -16 39 C-14.42384699 40.57615301 -12.78346103 40.18230442 -10.59765625 40.24609375 C-9.70755859 40.27896484 -8.81746094 40.31183594 -7.90039062 40.34570312 C-6.01248816 40.40677086 -4.12446023 40.46407887 -2.23632812 40.51757812 C-0.89924805 40.56881836 -0.89924805 40.56881836 0.46484375 40.62109375 C1.285896 40.6461499 2.10694824 40.67120605 2.95288086 40.69702148 C5 41 5 41 7 43 C7.25 45.5 7.25 45.5 7 48 C3.44585938 51.55414062 -1.87471615 50.49742415 -6.6875 50.5625 C-8.30301758 50.63694336 -8.30301758 50.63694336 -9.95117188 50.71289062 C-14.92305351 50.77690627 -19.14515846 50.66095405 -23.22265625 47.59375 C-27.81650682 42.06134819 -26.9595077 34.23015777 -26.80273438 27.4206543 C-26.75003804 24.93929116 -26.76159854 22.4641558 -26.78125 19.98242188 C-26.76943665 18.39319626 -26.7539363 16.80399288 -26.734375 15.21484375 C-26.73822205 14.48031479 -26.74206909 13.74578583 -26.74603271 12.98899841 C-26.56345449 7.25512361 -24.92883097 4.88308635 -21 1 C-15.20723815 -1.89638092 -6.26078148 -0.87583134 0 0 Z " fill="#060606" transform="translate(850,321)"/>
<path d="M0 0 C3.625 0.375 3.625 0.375 7 1 C7.02505615 1.56509277 7.0501123 2.13018555 7.07592773 2.71240234 C7.19179956 5.26683742 7.31456537 7.8208955 7.4375 10.375 C7.47681641 11.26445312 7.51613281 12.15390625 7.55664062 13.0703125 C7.61948242 14.34648437 7.61948242 14.34648437 7.68359375 15.6484375 C7.72025146 16.43395996 7.75690918 17.21948242 7.79467773 18.02880859 C7.890891 20.07523496 7.890891 20.07523496 9 22 C12.10419978 22.26499266 15.1638942 22.36662924 18.27734375 22.390625 C23.13393952 22.56237102 25.57948214 23.5669985 29 27 C31.03202361 30.04803542 31.2511751 30.64798345 31.25878906 34.07250977 C31.26509338 34.88667862 31.27139771 35.70084747 31.27789307 36.53968811 C31.2738446 37.4147551 31.26979614 38.28982208 31.265625 39.19140625 C31.26849518 40.54298073 31.26849518 40.54298073 31.27142334 41.92185974 C31.27278397 43.82575764 31.26909606 45.72966486 31.26074219 47.63354492 C31.25002848 50.55473549 31.260648 53.47531281 31.2734375 56.39648438 C31.27211613 58.24479303 31.2695542 60.0931013 31.265625 61.94140625 C31.26967346 62.81849747 31.27372192 63.69558868 31.27789307 64.59925842 C31.22992511 70.77007489 31.22992511 70.77007489 29 73 C26.5 73.25 26.5 73.25 24 73 C21.02508895 70.02508895 21.66329646 66.73792413 21.62109375 62.74609375 C21.60409927 61.93004166 21.5871048 61.11398956 21.56959534 60.27320862 C21.51636928 57.66138473 21.47612104 55.04957756 21.4375 52.4375 C21.39363154 49.82193308 21.34698091 47.20649219 21.29469299 44.59107971 C21.26263725 42.96189294 21.23577828 41.33259449 21.21446228 39.70323181 C21.48887919 36.05014056 21.48887919 36.05014056 20 33 C18.16884117 32.90148829 16.33380067 32.87027371 14.5 32.875 C12.99953125 32.87113281 12.99953125 32.87113281 11.46875 32.8671875 C9.05600378 32.72129618 9.05600378 32.72129618 8 34 C7.83982834 36.80976518 7.74049466 39.59773596 7.68359375 42.41015625 C7.66281265 43.25219101 7.64203156 44.09422577 7.62062073 44.96177673 C7.55503188 47.66193179 7.49619724 50.36218717 7.4375 53.0625 C7.39432363 54.88868241 7.35070964 56.71485454 7.30664062 58.54101562 C7.19934106 63.02723992 7.09810034 67.5135655 7 72 C3.625 72.625 3.625 72.625 0 73 C-2.81147122 70.18852878 -2.25363278 68.40892831 -2.25878906 64.47070312 C-2.2622937 63.80062729 -2.26579834 63.13055145 -2.26940918 62.44017029 C-2.27822732 60.22042548 -2.27237724 58.00099817 -2.265625 55.78125 C-2.26697163 54.24190204 -2.26891215 52.7025545 -2.27142334 51.16320801 C-2.27437471 47.93509883 -2.27007661 44.70710024 -2.26074219 41.47900391 C-2.24934757 37.33594206 -2.25590699 33.19313931 -2.26788712 29.05008698 C-2.27510542 25.87085 -2.27281794 22.69167472 -2.26763153 19.51243591 C-2.26629495 17.98457305 -2.26794306 16.45670464 -2.27259064 14.92884827 C-2.27765547 12.79551301 -2.26994669 10.66260055 -2.25878906 8.52929688 C-2.25719788 7.31399292 -2.25560669 6.09868896 -2.25396729 4.84655762 C-2 2 -2 2 0 0 Z " fill="#020202" transform="translate(910,298)"/>
<path d="M0 0 C3.0625 0.1875 3.0625 0.1875 5.0625 2.1875 C5.38134766 4.34228516 5.38134766 4.34228516 5.4765625 6.9765625 C5.51523437 7.91757812 5.55390625 8.85859375 5.59375 9.828125 C5.6246875 10.81296875 5.655625 11.7978125 5.6875 12.8125 C5.72617187 13.80507813 5.76484375 14.79765625 5.8046875 15.8203125 C5.89912661 18.27572942 5.98190881 20.73158957 6.0625 23.1875 C10.0225 23.1875 13.9825 23.1875 18.0625 23.1875 C18.11148438 21.69476563 18.16046875 20.20203125 18.2109375 18.6640625 C18.28595827 16.71352237 18.3615064 14.76300247 18.4375 12.8125 C18.4684375 11.82765625 18.499375 10.8428125 18.53125 9.828125 C18.56992187 8.88710938 18.60859375 7.94609375 18.6484375 6.9765625 C18.6798584 6.10725098 18.7112793 5.23793945 18.74365234 4.34228516 C19.0625 2.1875 19.0625 2.1875 21.0625 0.1875 C24.0625 -0.0625 24.0625 -0.0625 27.0625 0.1875 C29.52146383 2.64646383 29.32196963 3.34353596 29.35302734 6.72558594 C29.36578705 7.66706482 29.37854675 8.6085437 29.39169312 9.57855225 C29.39391876 10.59934875 29.39614441 11.62014526 29.3984375 12.671875 C29.4050943 13.72022522 29.4117511 14.76857544 29.41860962 15.84869385 C29.42875054 18.07131187 29.4334262 20.29396043 29.43310547 22.51660156 C29.4374647 25.91002066 29.47373163 29.30212492 29.51171875 32.6953125 C29.51758944 34.85416222 29.52155714 37.01301812 29.5234375 39.171875 C29.53780853 40.18457458 29.55217957 41.19727417 29.56698608 42.24066162 C29.52943696 48.06280318 29.09362633 51.65215057 25.0625 56.1875 C21.99299025 59.16261753 19.90206733 59.55781149 15.67578125 59.515625 C14.65548828 59.51046875 13.63519531 59.5053125 12.58398438 59.5 C11.52501953 59.479375 10.46605469 59.45875 9.375 59.4375 C8.30443359 59.43234375 7.23386719 59.4271875 6.13085938 59.421875 C-1.78342209 59.34157791 -1.78342209 59.34157791 -2.9375 58.1875 C-3.0625 54.6875 -3.0625 54.6875 -2.9375 51.1875 C-1.31969843 49.56969843 0.51885518 49.96477853 2.75390625 49.87109375 C3.69814453 49.82919922 4.64238281 49.78730469 5.61523438 49.74414062 C6.60845703 49.70482422 7.60167969 49.66550781 8.625 49.625 C9.62208984 49.58181641 10.61917969 49.53863281 11.64648438 49.49414062 C14.11831111 49.38769833 16.5903866 49.28706241 19.0625 49.1875 C18.7325 44.5675 18.4025 39.9475 18.0625 35.1875 C15.9175 35.166875 13.7725 35.14625 11.5625 35.125 C5.58232132 35.06749828 1.89775738 33.62480105 -2.38037109 29.55200195 C-5.53208383 24.76612271 -4.79327292 19.33328721 -4.5 13.8125 C-4.47228516 12.61238281 -4.44457031 11.41226562 -4.41601562 10.17578125 C-4.12976356 0.26360193 -4.12976356 0.26360193 0 0 Z " fill="#0A0A0A" transform="translate(604.9375,320.8125)"/>
<path d="M0 0 C3.5 0.125 3.5 0.125 4.5 1.125 C4.64481287 2.67315405 4.72702845 4.22728354 4.78125 5.78125 C4.81863281 6.72097656 4.85601563 7.66070312 4.89453125 8.62890625 C4.96484375 10.62630208 5.03515625 12.62369792 5.10546875 14.62109375 C5.14285156 15.56082031 5.18023438 16.50054687 5.21875 17.46875 C5.24904297 18.33693359 5.27933594 19.20511719 5.31054688 20.09960938 C5.28221501 22.1199413 5.28221501 22.1199413 6.5 23.125 C8.51594582 23.35927778 10.538474 23.53836124 12.5625 23.6875 C13.66722656 23.77128906 14.77195312 23.85507812 15.91015625 23.94140625 C16.76480469 24.00199219 17.61945313 24.06257813 18.5 24.125 C18.52505615 23.43349854 18.5501123 22.74199707 18.57592773 22.02954102 C18.69152161 18.91532134 18.81441242 15.80143211 18.9375 12.6875 C18.97681641 11.59888672 19.01613281 10.51027344 19.05664062 9.38867188 C19.09853516 8.35419922 19.14042969 7.31972656 19.18359375 6.25390625 C19.22025146 5.29556885 19.25690918 4.33723145 19.29467773 3.34985352 C19.5 1.125 19.5 1.125 20.5 0.125 C24 0 24 0 27.5 0.125 C29.12291682 1.74791682 28.67658863 3.56554558 28.72460938 5.80908203 C28.74712769 6.80747101 28.769646 7.80585999 28.79284668 8.83450317 C28.86368869 13.42475128 28.92141549 18.01483043 28.95996094 22.60546875 C28.98653785 25.02461578 29.02742911 27.44365016 29.08300781 29.86230469 C29.16222405 33.34877376 29.19528952 36.83307473 29.21875 40.3203125 C29.25174194 41.39660919 29.28473389 42.47290588 29.31872559 43.58181763 C29.30459515 48.90788314 29.01201436 52.30777752 25.30786133 56.31567383 C22.21009469 58.91608968 19.98704558 59.98704746 15.85546875 59.87890625 C14.84935547 59.86537109 13.84324219 59.85183594 12.80664062 59.83789062 C11.77732422 59.78826172 10.74800781 59.73863281 9.6875 59.6875 C8.63884766 59.67267578 7.59019531 59.65785156 6.50976562 59.64257812 C-1.17567274 59.44932726 -1.17567274 59.44932726 -3.5 57.125 C-3.75 54.625 -3.75 54.625 -3.5 52.125 C-1.10361368 49.72861368 -0.4607459 49.8514804 2.81640625 49.74609375 C3.66267578 49.71193359 4.50894531 49.67777344 5.38085938 49.64257812 C6.70827148 49.60293945 6.70827148 49.60293945 8.0625 49.5625 C9.81394692 49.50280601 11.56526689 49.43921588 13.31640625 49.37109375 C14.09443604 49.34716553 14.87246582 49.3232373 15.67407227 49.29858398 C17.51848649 49.31885111 17.51848649 49.31885111 18.5 48.125 C18.57258946 45.93860547 18.58373783 43.74999611 18.5625 41.5625 C18.55347656 40.36496094 18.54445313 39.16742188 18.53515625 37.93359375 C18.52355469 37.00675781 18.51195312 36.07992187 18.5 35.125 C17.48679687 35.11082031 16.47359375 35.09664063 15.4296875 35.08203125 C3.22874507 34.72036426 3.22874507 34.72036426 -0.3125 31.75 C-3.71167658 27.6709881 -4.75154766 25.65824513 -4.73046875 20.3984375 C-4.72756836 18.7278125 -4.72756836 18.7278125 -4.72460938 17.0234375 C-4.71236328 15.86070312 -4.70011719 14.69796875 -4.6875 13.5 C-4.68685547 12.32953125 -4.68621094 11.1590625 -4.68554688 9.953125 C-4.63445147 0.16551612 -4.63445147 0.16551612 0 0 Z " fill="#040404" transform="translate(1151.5,320.875)"/>
<path d="M0 0 C1.22396484 -0.02126953 1.22396484 -0.02126953 2.47265625 -0.04296875 C8.11264851 0.07471969 11.13216611 1.52107877 15.20507812 5.39794922 C18.38099315 9.02055214 17.66206086 13.19306754 17.66796875 17.75 C17.67296135 19.07040283 17.67296135 19.07040283 17.67805481 20.41748047 C17.68312167 22.28026811 17.68546321 24.14306485 17.68530273 26.00585938 C17.68749114 28.86343226 17.70565453 31.72062037 17.72460938 34.578125 C17.7275429 36.38541534 17.72952797 38.19270752 17.73046875 40 C17.73765427 40.85835449 17.74483978 41.71670898 17.75224304 42.60107422 C17.72882579 48.64617421 17.72882579 48.64617421 15.5 50.875 C12.5 51.125 12.5 51.125 9.5 50.875 C6.48515224 47.86015224 7.14291144 44.41601289 7.0859375 40.3671875 C7.06657135 39.52656769 7.0472052 38.68594788 7.0272522 37.81985474 C6.96738342 35.13000697 6.92104229 32.44011657 6.875 29.75 C6.8368269 27.92836656 6.79777556 26.1067513 6.7578125 24.28515625 C6.66167602 19.81525148 6.57767231 15.34526221 6.5 10.875 C2.54 10.875 -1.42 10.875 -5.5 10.875 C-5.51981934 12.01565918 -5.53963867 13.15631836 -5.56005859 14.33154297 C-5.63600567 18.55475323 -5.72473928 22.77761399 -5.81738281 27.00048828 C-5.85571777 28.82984529 -5.89056263 30.65927885 -5.921875 32.48876953 C-5.96742805 35.11518759 -6.02543731 37.74107659 -6.0859375 40.3671875 C-6.10326431 41.59850906 -6.10326431 41.59850906 -6.12094116 42.85470581 C-6.27225659 48.64725659 -6.27225659 48.64725659 -8.5 50.875 C-11.5 51.125 -11.5 51.125 -14.5 50.875 C-17.5400416 47.8349584 -16.88478022 44.29619525 -16.94140625 40.2109375 C-16.95517807 39.34489899 -16.96894989 38.47886047 -16.98313904 37.58657837 C-17.00644374 35.74902761 -17.02369248 33.91139171 -17.03540039 32.07373047 C-17.06220615 29.28061879 -17.13704655 26.49136771 -17.21289062 23.69921875 C-17.44058204 8.72939278 -17.44058204 8.72939278 -13.55859375 3.65625 C-9.38096267 0.06695054 -5.33654712 -0.26134749 0 0 Z " fill="#101010" transform="translate(969.5,320.125)"/>
<path d="M0 0 C0.83402344 -0.04962891 1.66804687 -0.09925781 2.52734375 -0.15039062 C7.16825039 -0.22688909 10.05871574 0.26656766 13.4987793 3.51074219 C16.85525314 7.08805233 17.55918164 9.72243739 17.59437561 14.55537415 C17.56452072 15.40979599 17.53466583 16.26421783 17.50390625 17.14453125 C17.49874496 18.03992111 17.49358368 18.93531097 17.48826599 19.85783386 C17.47120479 21.7380435 17.4374842 23.61816855 17.38793945 25.49780273 C17.31226626 28.3839145 17.28547323 31.26730088 17.26757812 34.15429688 C17.24499918 35.98441185 17.21970486 37.81449578 17.19140625 39.64453125 C17.17976944 40.50907425 17.16813263 41.37361725 17.15614319 42.26435852 C16.98566607 48.32683393 16.98566607 48.32683393 14.75 50.5625 C12.25 50.8125 12.25 50.8125 9.75 50.5625 C6.77508895 47.58758895 7.41329646 44.30042413 7.37109375 40.30859375 C7.35409927 39.49254166 7.3371048 38.67648956 7.31959534 37.83570862 C7.26636928 35.22388473 7.22612104 32.61207756 7.1875 30 C7.14363154 27.38443308 7.09698091 24.76899219 7.04469299 22.15357971 C7.01263725 20.52439294 6.98577828 18.89509449 6.96446228 17.26573181 C7.23887919 13.61264056 7.23887919 13.61264056 5.75 10.5625 C3.91884117 10.46398829 2.08380067 10.43277371 0.25 10.4375 C-1.25046875 10.43363281 -1.25046875 10.43363281 -2.78125 10.4296875 C-5.19399622 10.28379618 -5.19399622 10.28379618 -6.25 11.5625 C-6.38542809 14.27620469 -6.46056807 16.96806436 -6.49609375 19.68359375 C-6.52902796 21.35742719 -6.56223968 23.03125518 -6.59570312 24.70507812 C-6.64318011 27.35616349 -6.68760684 30.00722609 -6.72680664 32.65844727 C-6.76642134 35.20873234 -6.81798868 37.75855902 -6.87109375 40.30859375 C-6.8795079 41.10446396 -6.88792206 41.90033417 -6.89659119 42.72032166 C-7.02332648 48.33582648 -7.02332648 48.33582648 -9.25 50.5625 C-11.75 50.8125 -11.75 50.8125 -14.25 50.5625 C-17.34809866 47.46440134 -16.57530711 43.73351667 -16.5859375 39.57421875 C-16.5925943 38.67886917 -16.5992511 37.78351959 -16.60610962 36.86103821 C-16.61624685 34.96377622 -16.62092631 33.0664785 -16.62060547 31.16918945 C-16.62496734 28.27169558 -16.6612434 25.37573863 -16.69921875 22.47851562 C-16.70508902 20.63542188 -16.709057 18.79232089 -16.7109375 16.94921875 C-16.72530853 16.08447433 -16.73967957 15.21972992 -16.75448608 14.32878113 C-16.72382321 10.27237335 -16.59392241 8.1156852 -14.40869141 4.60083008 C-9.64185702 0.09977825 -6.23484124 0.10880224 0 0 Z " fill="#010101" transform="translate(739.25,320.4375)"/>
<path d="M0 0 C1.22264305 -0.0049926 1.22264305 -0.0049926 2.46998596 -0.01008606 C4.19751418 -0.01515867 5.92505223 -0.01749428 7.65258789 -0.01733398 C10.3017587 -0.01951917 12.95051241 -0.03766746 15.59960938 -0.05664062 C17.27473815 -0.05957469 18.94986892 -0.0615594 20.625 -0.0625 C21.42087021 -0.06968552 22.21674042 -0.07687103 23.03672791 -0.08427429 C28.65008398 -0.06085352 28.65008398 -0.06085352 30.87890625 2.16796875 C31.12890625 4.66796875 31.12890625 4.66796875 30.87890625 7.16796875 C28.20189649 9.84497851 26.54452425 9.52162305 22.81640625 9.73046875 C19.03067399 9.62678816 19.03067399 9.62678816 15.87890625 11.16796875 C15.76595312 13.02864155 15.72208632 14.89354565 15.70532227 16.75756836 C15.69183243 17.95228256 15.67834259 19.14699677 15.66444397 20.37791443 C15.65400558 21.67890579 15.6435672 22.97989716 15.6328125 24.3203125 C15.61732049 25.65931522 15.60111168 26.99830982 15.58421326 28.33729553 C15.51331596 34.03718611 15.45327066 39.73715476 15.40209961 45.43725586 C15.37034836 48.92037965 15.32908258 52.40328504 15.28190422 55.88623238 C15.25804225 57.86377222 15.24512539 59.84143423 15.23231506 61.81907654 C15.21567307 63.0169429 15.19903107 64.21480927 15.18188477 65.44897461 C15.1715773 66.50741074 15.16126984 67.56584686 15.15065002 68.65635681 C14.87890625 71.16796875 14.87890625 71.16796875 12.87890625 73.16796875 C10.37890625 73.41796875 10.37890625 73.41796875 7.87890625 73.16796875 C5.20977158 70.49883408 5.6122577 69.17956734 5.57592773 65.44897461 C5.55928574 64.25110825 5.54264374 63.05324188 5.52549744 61.81907654 C5.51708328 60.52010941 5.50866913 59.22114227 5.5 57.8828125 C5.48383122 56.54283936 5.46665189 55.20287806 5.44850159 53.8629303 C5.40277373 50.33374491 5.36798733 46.80454391 5.33630371 43.27520752 C5.28446105 37.62197162 5.21943136 31.96890936 5.14808846 26.31588936 C5.12518859 24.33661281 5.10924963 22.35725974 5.09336853 20.37791443 C5.07987869 19.18320023 5.06638885 17.98848602 5.05249023 16.75756836 C5.04297836 15.69992783 5.03346649 14.64228729 5.02366638 13.55259705 C5.1461726 11.21424808 5.1461726 11.21424808 3.87890625 10.16796875 C1.88287419 9.95908167 -0.11852316 9.80021398 -2.12109375 9.66796875 C-8.00998264 9.27907986 -8.00998264 9.27907986 -9.12109375 8.16796875 C-9.24609375 4.66796875 -9.24609375 4.66796875 -9.12109375 1.16796875 C-7.07596322 -0.87716178 -2.81204197 0.00392196 0 0 Z " fill="#020202" transform="translate(789.12109375,297.83203125)"/>
<path d="M0 0 C1.06412109 -0.00257813 2.12824219 -0.00515625 3.22460938 -0.0078125 C4.89040039 0.00378906 4.89040039 0.00378906 6.58984375 0.015625 C7.70423828 0.00789063 8.81863281 0.00015625 9.96679688 -0.0078125 C11.02962891 -0.00523437 12.09246094 -0.00265625 13.1875 0 C14.65135132 0.00338379 14.65135132 0.00338379 16.14477539 0.00683594 C18.52734375 0.265625 18.52734375 0.265625 20.52734375 2.265625 C20.77734375 4.765625 20.77734375 4.765625 20.52734375 7.265625 C18.08887854 9.70409021 17.3440835 9.54224103 13.9921875 9.64453125 C12.65510742 9.69577148 12.65510742 9.69577148 11.29101562 9.74804688 C10.35837891 9.77447266 9.42574219 9.80089844 8.46484375 9.828125 C6.61965393 9.88781111 4.77458478 9.95139963 2.9296875 10.01953125 C1.69980103 10.05542358 1.69980103 10.05542358 0.44506836 10.09204102 C-1.48046887 10.0599429 -1.48046887 10.0599429 -2.47265625 11.265625 C-2.57259157 13.3261781 -2.60346531 15.3901509 -2.60546875 17.453125 C-2.60675781 18.70867187 -2.60804688 19.96421875 -2.609375 21.2578125 C-2.60728027 21.91491211 -2.60518555 22.57201172 -2.60302734 23.24902344 C-2.59767859 25.25723835 -2.60297316 27.26522959 -2.609375 29.2734375 C-2.60744141 31.15675781 -2.60744141 31.15675781 -2.60546875 33.078125 C-2.60434082 34.23957031 -2.60321289 35.40101563 -2.60205078 36.59765625 C-2.77603099 39.18625784 -2.77603099 39.18625784 -1.47265625 40.265625 C0.0754978 40.41043787 1.62962729 40.49265345 3.18359375 40.546875 C4.12332031 40.58425781 5.06304688 40.62164062 6.03125 40.66015625 C7.01996094 40.69496094 8.00867188 40.72976563 9.02734375 40.765625 C10.97541805 40.83420128 12.92335334 40.90689287 14.87109375 40.984375 C15.73927734 41.01466797 16.60746094 41.04496094 17.50195312 41.07617188 C19.52734375 41.265625 19.52734375 41.265625 20.52734375 42.265625 C20.71484375 45.203125 20.71484375 45.203125 20.52734375 48.265625 C17.55531395 51.2376548 14.84076121 50.5579782 10.77539062 50.58789062 C9.26041992 50.58305664 9.26041992 50.58305664 7.71484375 50.578125 C6.71646484 50.59423828 5.71808594 50.61035156 4.68945312 50.62695312 C-4.62090523 50.6331559 -4.62090523 50.6331559 -8.47265625 47.265625 C-11.89558451 43.81158284 -12.9384699 41.37346163 -13.02844238 36.49108887 C-13.02034546 35.76699829 -13.01224854 35.04290771 -13.00390625 34.296875 C-13.00773315 33.53894653 -13.01156006 32.78101807 -13.01550293 32.00012207 C-13.0182158 30.40322536 -13.01089828 28.80628374 -12.99414062 27.20947266 C-12.97271889 24.77275006 -12.99396014 22.33897524 -13.01953125 19.90234375 C-13.01688786 18.3463477 -13.01176264 16.79035347 -13.00390625 15.234375 C-13.01200317 14.51028442 -13.0201001 13.78619385 -13.02844238 13.04016113 C-12.93854637 8.16193796 -11.93668176 5.68568282 -8.47265625 2.265625 C-5.10806707 0.02256554 -3.93749354 0.00909127 0 0 Z " fill="#040404" transform="translate(879.47265625,320.734375)"/>
<path d="M0 0 C3.0625 0.1875 3.0625 0.1875 5.0625 2.1875 C5.44140625 4.09765625 5.44140625 4.09765625 5.625 6.25 C5.62163448 9.95486617 5.62163448 9.95486617 7.0625 11.1875 C8.55746842 11.39449563 10.0591592 11.55429259 11.5625 11.6875 C15.95138889 12.07638889 15.95138889 12.07638889 17.0625 13.1875 C17.25 16.125 17.25 16.125 17.0625 19.1875 C14.76426341 21.48573659 14.11369118 21.48440384 11 21.75 C7.29513383 21.74663448 7.29513383 21.74663448 6.0625 23.1875 C5.96256468 25.2480531 5.93169094 27.3120259 5.9296875 29.375 C5.92839844 30.63054687 5.92710937 31.88609375 5.92578125 33.1796875 C5.92787598 33.83678711 5.9299707 34.49388672 5.93212891 35.17089844 C5.93747766 37.17911335 5.93218309 39.18710459 5.92578125 41.1953125 C5.92771484 43.07863281 5.92771484 43.07863281 5.9296875 45 C5.93081543 46.16144531 5.93194336 47.32289063 5.93310547 48.51953125 C5.75912526 51.10813284 5.75912526 51.10813284 7.0625 52.1875 C8.55746842 52.39449563 10.0591592 52.55429259 11.5625 52.6875 C15.95138889 53.07638889 15.95138889 53.07638889 17.0625 54.1875 C17.25 57.125 17.25 57.125 17.0625 60.1875 C14.44449468 62.80550532 13.03012839 62.63822788 9.375 62.8125 C8.36050781 62.88726562 7.34601562 62.96203125 6.30078125 63.0390625 C2.09335685 61.93264692 0.16710573 60.31933643 -2.53881836 56.95068359 C-5.47265413 51.15470642 -4.92761727 44.54049506 -4.875 38.1875 C-4.88812815 36.73043699 -4.90437759 35.27339858 -4.92382812 33.81640625 C-4.96440522 30.27299944 -4.96263883 26.73112104 -4.9375 23.1875 C-5.906875 22.713125 -6.87625 22.23875 -7.875 21.75 C-10.9375 20.1875 -10.9375 20.1875 -11.9375 19.1875 C-11.97830783 17.18791636 -11.98004356 15.18704746 -11.9375 13.1875 C-9.6275 12.1975 -7.3175 11.2075 -4.9375 10.1875 C-4.87691406 9.54941406 -4.81632813 8.91132813 -4.75390625 8.25390625 C-4.67011719 7.42761719 -4.58632813 6.60132813 -4.5 5.75 C-4.41878906 4.92628906 -4.33757813 4.10257812 -4.25390625 3.25390625 C-3.7555027 -0.00109963 -3.3899687 0.21638098 0 0 Z " fill="#030303" transform="translate(653.9375,308.8125)"/>
<path d="M0 0 C2.9375 0.1875 2.9375 0.1875 3.9375 1.1875 C4.04233132 3.35469586 4.07606845 5.52534887 4.08276367 7.69506836 C4.08780159 8.71459343 4.08780159 8.71459343 4.09294128 9.75471497 C4.10247745 12.01227624 4.10439573 14.26976356 4.10546875 16.52734375 C4.10867951 18.09054089 4.11204344 19.65373771 4.11555481 21.2169342 C4.12155278 24.49806414 4.12339403 27.7791677 4.12280273 31.06030273 C4.12270108 35.27175444 4.13635364 39.48303767 4.15357494 43.69444942 C4.1646751 46.92428875 4.16672256 50.1540871 4.16619301 53.38394356 C4.16737612 54.9369318 4.1718163 56.48992099 4.17952538 58.04289055 C4.18928539 60.21222723 4.18646328 62.38119492 4.18041992 64.55053711 C4.18184494 65.78662216 4.18326996 67.02270721 4.18473816 68.29624939 C3.9375 71.1875 3.9375 71.1875 1.9375 73.1875 C-0.5625 73.4375 -0.5625 73.4375 -3.0625 73.1875 C-5.87397122 70.37602878 -5.31613278 68.59642831 -5.32128906 64.65820312 C-5.3247937 63.98812729 -5.32829834 63.31805145 -5.33190918 62.62767029 C-5.34072732 60.40792548 -5.33487724 58.18849817 -5.328125 55.96875 C-5.32947163 54.42940204 -5.33141215 52.8900545 -5.33392334 51.35070801 C-5.33687471 48.12259883 -5.33257661 44.89460024 -5.32324219 41.66650391 C-5.31184757 37.52344206 -5.31840699 33.38063931 -5.33038712 29.23758698 C-5.33760542 26.05835 -5.33531794 22.87917472 -5.33013153 19.69993591 C-5.32879495 18.17207305 -5.33044306 16.64420464 -5.33509064 15.11634827 C-5.34015547 12.98301301 -5.33244669 10.85010055 -5.32128906 8.71679688 C-5.31969788 7.50149292 -5.31810669 6.28618896 -5.31646729 5.03405762 C-4.95213 0.95043299 -4.07186336 0.24929776 0 0 Z " fill="#030303" transform="translate(1046.0625,297.8125)"/>
<path d="M0 0 C1.19496094 -0.00386719 1.19496094 -0.00386719 2.4140625 -0.0078125 C3.24679687 -0.00007813 4.07953125 0.00765625 4.9375 0.015625 C5.77023437 0.00789063 6.60296875 0.00015625 7.4609375 -0.0078125 C8.25757813 -0.00523437 9.05421875 -0.00265625 9.875 0 C10.60589844 0.00225586 11.33679688 0.00451172 12.08984375 0.00683594 C13.9375 0.265625 13.9375 0.265625 15.9375 2.265625 C16.39565988 6.39313648 16.26150858 10.55313268 16.25 14.703125 C16.26611328 15.86134766 16.28222656 17.01957031 16.29882812 18.21289062 C16.29947266 19.32212891 16.30011719 20.43136719 16.30078125 21.57421875 C16.30376221 22.59314209 16.30674316 23.61206543 16.30981445 24.66186523 C15.9375 27.265625 15.9375 27.265625 14.66113281 29.09863281 C11.59593568 31.17393626 7.94563204 30.6522045 4.375 30.578125 C3.59447266 30.58134766 2.81394531 30.58457031 2.00976562 30.58789062 C-3.79533019 30.53279481 -3.79533019 30.53279481 -6.0625 28.265625 C-6.32128906 25.68359375 -6.32128906 25.68359375 -6.328125 22.453125 C-6.33070313 21.29554688 -6.33328125 20.13796875 -6.3359375 18.9453125 C-6.32820312 17.73101562 -6.32046875 16.51671875 -6.3125 15.265625 C-6.32023438 14.05132812 -6.32796875 12.83703125 -6.3359375 11.5859375 C-6.33335937 10.42835938 -6.33078125 9.27078125 -6.328125 8.078125 C-6.32586914 7.01207031 -6.32361328 5.94601562 -6.32128906 4.84765625 C-5.88359491 0.48062474 -3.94962908 0.01219021 0 0 Z " fill="#F6F6F6" transform="translate(523.0625,306.734375)"/>
<path d="M0 0 C1.08152344 -0.01417969 2.16304687 -0.02835937 3.27734375 -0.04296875 C6.0625 0.1875 6.0625 0.1875 8.0625 2.1875 C8.52353073 6.64904808 8.38648794 11.14240638 8.375 15.625 C8.39111328 16.87861328 8.40722656 18.13222656 8.42382812 19.42382812 C8.42447266 20.62330078 8.42511719 21.82277344 8.42578125 23.05859375 C8.43025269 24.71266235 8.43025269 24.71266235 8.43481445 26.40014648 C8.0625 29.1875 8.0625 29.1875 6.69042969 31.04785156 C4.41316329 32.64207465 2.75329903 32.55271412 0 32.5 C-0.87785156 32.49613281 -1.75570312 32.49226563 -2.66015625 32.48828125 C-4.9375 32.1875 -4.9375 32.1875 -6.9375 30.1875 C-7.18041992 27.31420898 -7.18041992 27.31420898 -7.16796875 23.68359375 C-7.16603516 22.38615234 -7.16410156 21.08871094 -7.16210938 19.75195312 C-7.15590576 19.07527588 -7.14970215 18.39859863 -7.14331055 17.70141602 C-7.12504052 15.62959529 -7.12280095 13.55822103 -7.12304688 11.48632812 C-7.07182929 0.04204417 -7.07182929 0.04204417 0 0 Z " fill="#F5F5F5" transform="translate(1013.9375,329.8125)"/>
<path d="M0 0 C1.093125 0.00257813 2.18625 0.00515625 3.3125 0.0078125 C4.405625 0.00523437 5.49875 0.00265625 6.625 0 C9.3125 0.1328125 9.3125 0.1328125 10.3125 1.1328125 C10.53039186 5.24858839 10.49829188 9.36746173 10.49780273 13.48852539 C10.49998734 15.55831514 10.51813491 17.62757043 10.53710938 19.69726562 C10.54000977 21.64342773 10.54000977 21.64342773 10.54296875 23.62890625 C10.54707764 24.82700928 10.55118652 26.0251123 10.55541992 27.25952148 C10.3125 30.1328125 10.3125 30.1328125 8.3125 32.1328125 C6 32.3984375 6 32.3984375 3.3125 32.3828125 C1.9821875 32.39054687 1.9821875 32.39054687 0.625 32.3984375 C-1.6875 32.1328125 -1.6875 32.1328125 -3.6875 30.1328125 C-3.93041992 27.25952148 -3.93041992 27.25952148 -3.91796875 23.62890625 C-3.91603516 22.33146484 -3.91410156 21.03402344 -3.91210938 19.69726562 C-3.90590576 19.02058838 -3.89970215 18.34391113 -3.89331055 17.64672852 C-3.87504052 15.57490779 -3.87280095 13.50353353 -3.87304688 11.43164062 C-3.82273134 0.18891405 -3.82273134 0.18891405 0 0 Z " fill="#FBFBFB" transform="translate(1073.6875,329.8671875)"/>
<path d="M0 0 C1.093125 0.00257813 2.18625 0.00515625 3.3125 0.0078125 C4.405625 0.00523437 5.49875 0.00265625 6.625 0 C9.3125 0.1328125 9.3125 0.1328125 10.3125 1.1328125 C10.53039186 5.24858839 10.49829188 9.36746173 10.49780273 13.48852539 C10.49998734 15.55831514 10.51813491 17.62757043 10.53710938 19.69726562 C10.54000977 21.64342773 10.54000977 21.64342773 10.54296875 23.62890625 C10.54707764 24.82700928 10.55118652 26.0251123 10.55541992 27.25952148 C10.3125 30.1328125 10.3125 30.1328125 8.3125 32.1328125 C6 32.3984375 6 32.3984375 3.3125 32.3828125 C1.9821875 32.39054687 1.9821875 32.39054687 0.625 32.3984375 C-1.6875 32.1328125 -1.6875 32.1328125 -3.6875 30.1328125 C-3.93041992 27.25952148 -3.93041992 27.25952148 -3.91796875 23.62890625 C-3.91603516 22.33146484 -3.91410156 21.03402344 -3.91210938 19.69726562 C-3.90590576 19.02058838 -3.89970215 18.34391113 -3.89331055 17.64672852 C-3.87504052 15.57490779 -3.87280095 13.50353353 -3.87304688 11.43164062 C-3.82273134 0.18891405 -3.82273134 0.18891405 0 0 Z " fill="#FBFBFB" transform="translate(691.6875,329.8671875)"/>
<path d="M0 0 C4.72087651 0.60914536 6.43015201 1.96198219 9.546875 5.4296875 C11.88238599 9.07033698 11.62856007 11.25266145 10.875 15.5 C8.40329474 19.77795141 5.48967939 21.80481165 0.875 23.5 C-2.14179558 23.65083978 -3.48546252 23.06658053 -5.734375 21.07421875 C-8.22545883 18.39926921 -9.94327069 15.9067275 -11.4375 12.5625 C-10.93403446 7.62853775 -7.55527327 4.87390727 -4.125 1.5 C-3.125 0.5 -3.125 0.5 0 0 Z " fill="#080808" transform="translate(924.125,52.5)"/>
<path d="M0 0 C3.07936196 1.74567004 5.32756161 4.09367 7.4375 6.9375 C8.30878106 10.13219723 8.056545 11.83036501 7 15 C4.07209607 19.0990655 1.43771307 21.64057173 -3.5 22.875 C-8.44989057 21.63752736 -11.24302516 19.27694923 -14 15 C-14.87164937 12.10745656 -14.85547791 9.89456224 -14 7 C-10.43242724 0.9846036 -6.9051757 -0.69051757 0 0 Z " fill="#040404" transform="translate(928,94)"/>
<path d="M0 0 C0.9796875 0.00515625 1.959375 0.0103125 2.96875 0.015625 C3.9484375 0.01046875 4.928125 0.0053125 5.9375 0 C8.46875 0.265625 8.46875 0.265625 10.46875 2.265625 C10.66731972 5.13904561 10.74703946 7.89424488 10.71875 10.765625 C10.72648437 11.55066406 10.73421875 12.33570313 10.7421875 13.14453125 C10.72205787 19.01231713 10.72205787 19.01231713 8.46875 21.265625 C5.9375 21.53125 5.9375 21.53125 2.96875 21.515625 C1.9890625 21.52078125 1.009375 21.5259375 0 21.53125 C-2.53125 21.265625 -2.53125 21.265625 -4.53125 19.265625 C-4.72981972 16.39220439 -4.80953946 13.63700512 -4.78125 10.765625 C-4.78898437 9.98058594 -4.79671875 9.19554687 -4.8046875 8.38671875 C-4.77763652 0.50135692 -4.77763652 0.50135692 0 0 Z " fill="#F7F7F7" transform="translate(1117.53125,329.734375)"/>
<path d="M0 0 C1.08152344 0.01417969 2.16304687 0.02835937 3.27734375 0.04296875 C4.90349609 0.05263672 4.90349609 0.05263672 6.5625 0.0625 C9.21484375 0.23046875 9.21484375 0.23046875 10.21484375 1.23046875 C10.31377315 3.39527672 10.34455475 5.5634066 10.33984375 7.73046875 C10.34242188 8.91640625 10.345 10.10234375 10.34765625 11.32421875 C10.21484375 14.23046875 10.21484375 14.23046875 9.21484375 15.23046875 C7.23864928 15.35561803 5.25746202 15.40619635 3.27734375 15.41796875 C2.19582031 15.43214844 1.11429688 15.44632812 0 15.4609375 C-2.78515625 15.23046875 -2.78515625 15.23046875 -4.78515625 13.23046875 C-5.05078125 10.69921875 -5.05078125 10.69921875 -5.03515625 7.73046875 C-5.0403125 6.75078125 -5.04546875 5.77109375 -5.05078125 4.76171875 C-4.661759 1.05456551 -3.67924828 0.30445393 0 0 Z " fill="#F8F8F8" transform="translate(570.78515625,346.76953125)"/>
<path d="M0 0 C1.093125 0.00257813 2.18625 0.00515625 3.3125 0.0078125 C4.405625 0.00523437 5.49875 0.00265625 6.625 0 C9.3125 0.1328125 9.3125 0.1328125 10.3125 1.1328125 C10.38494053 3.15245449 10.39627188 5.17448374 10.375 7.1953125 C10.36597656 8.30003906 10.35695313 9.40476562 10.34765625 10.54296875 C10.33605469 11.39761719 10.32445312 12.25226563 10.3125 13.1328125 C7.83474905 14.37168798 6.07596293 14.30022919 3.3125 14.3203125 C1.9821875 14.34158203 1.9821875 14.34158203 0.625 14.36328125 C-1.6875 14.1328125 -1.6875 14.1328125 -3.6875 12.1328125 C-3.91796875 9.56640625 -3.91796875 9.56640625 -3.875 6.5703125 C-3.86855469 5.57902344 -3.86210938 4.58773438 -3.85546875 3.56640625 C-3.61900972 0.14049984 -3.45691214 0.17083577 0 0 Z " fill="#F9F9F9" transform="translate(836.6875,329.8671875)"/>
<path d="M0 0 C0.66 0 1.32 0 2 0 C1.67 0.99 1.34 1.98 1 3 C0.88044119 5.5389383 0.81476036 8.05257824 0.79467773 10.5925293 C0.78477814 11.36349945 0.77487854 12.1344696 0.76467896 12.92880249 C0.73309044 15.47724333 0.708317 18.02570282 0.68359375 20.57421875 C0.66302194 22.3411355 0.6420254 24.10804736 0.62062073 25.87495422 C0.56542355 30.52572667 0.51600388 35.17654336 0.46777344 39.82739258 C0.41754124 44.57311949 0.36186414 49.31878214 0.30664062 54.06445312 C0.19908784 63.37624719 0.09763644 72.68809705 0 82 C-0.33 82 -0.66 82 -1 82 C-1.02312343 71.45618688 -1.04091509 60.91237975 -1.05181217 50.36854649 C-1.057041 45.47314626 -1.06413864 40.57776332 -1.07543945 35.68237305 C-1.08626834 30.96212022 -1.09227684 26.24188408 -1.09487724 21.5216198 C-1.09673149 19.71661046 -1.10035209 17.91160208 -1.10573006 16.10659981 C-1.11294052 13.58740356 -1.11399094 11.0682771 -1.11352539 8.54907227 C-1.11712067 7.79525772 -1.12071594 7.04144318 -1.12442017 6.26478577 C-1.11405216 1.11405216 -1.11405216 1.11405216 0 0 Z " fill="#5C8BB3" transform="translate(187,313)"/>
</svg>
